<svg width="24" height="24" viewBox="0 0 24 24" fill="none" xmlns="http://www.w3.org/2000/svg">
<path d="M7.0003 14.8301C7.18766 15.0163 7.44111 15.1209 7.7053 15.1209C7.96948 15.1209 8.22293 15.0163 8.4103 14.8301L12.0003 11.2901L15.5403 14.8301C15.7277 15.0163 15.9811 15.1208 16.2453 15.1208C16.5095 15.1208 16.7629 15.0163 16.9503 14.8301C17.044 14.7371 17.1184 14.6265 17.1692 14.5046C17.22 14.3828 17.2461 14.2521 17.2461 14.1201C17.2461 13.988 17.22 13.8573 17.1692 13.7355C17.1184 13.6136 17.044 13.503 16.9503 13.4101L12.7103 9.17006C12.6173 9.07633 12.5067 9.00194 12.3849 8.95117C12.263 8.9004 12.1323 8.87426 12.0003 8.87426C11.8683 8.87426 11.7376 8.9004 11.6157 8.95117C11.4939 9.00194 11.3833 9.07633 11.2903 9.17006L7.0003 13.4101C6.90657 13.503 6.83217 13.6136 6.7814 13.7355C6.73064 13.8573 6.7045 13.988 6.7045 14.1201C6.7045 14.2521 6.73064 14.3828 6.7814 14.5046C6.83217 14.6265 6.90657 14.7371 7.0003 14.8301Z" fill="white"/>
</svg>
