<svg width="25" height="24" viewBox="0 0 25 24" fill="none" xmlns="http://www.w3.org/2000/svg">
<path d="M21.0044 15.7436C20.3925 15.482 19.8714 15.0458 19.5059 14.4897C19.1405 13.9336 18.9471 13.2821 18.9497 12.6166C18.9576 12.0227 19.1167 11.4405 19.4119 10.925C19.7072 10.4095 20.1289 9.97773 20.6372 9.67036C20.7522 9.59928 20.8516 9.50562 20.9294 9.39504C21.0072 9.28446 21.0617 9.15925 21.0898 9.02699C21.1178 8.89472 21.1187 8.75814 21.0924 8.62552C21.0662 8.49289 21.0133 8.36697 20.937 8.25536C20.48 7.59082 19.8843 7.03337 19.1909 6.62148C18.4975 6.20958 17.723 5.95306 16.9209 5.86963C17.6675 4.68476 18.0063 3.28832 17.8857 1.89305C17.8622 1.63969 17.7414 1.4053 17.5488 1.23906C17.3561 1.07282 17.1066 0.987662 16.8525 1.00145C15.1355 1.15448 13.5437 1.96434 12.4092 3.26219C11.6899 4.09557 11.1824 5.09018 10.9297 6.1616C10.4075 5.98488 9.86078 5.89129 9.30955 5.88426C8.28904 5.91318 7.29331 6.20529 6.41891 6.73227C5.54451 7.25925 4.82111 8.00322 4.31883 8.89205C2.43113 12.1694 3.58592 17.0805 5.63083 20.0366C6.45114 21.2211 7.6821 22.9995 9.53903 22.9995C9.57565 22.9995 9.61276 22.9995 9.64987 22.9975C10.272 22.9622 10.8812 22.8045 11.4424 22.5336C11.8906 22.3064 12.3852 22.1854 12.8877 22.1801C13.3602 22.1858 13.825 22.3015 14.2451 22.518C14.859 22.8084 15.528 22.9639 16.207 22.974C18.1201 22.9379 19.25 21.2875 20.0752 20.0814C20.7263 19.1235 21.2358 18.0765 21.5879 16.973C21.6629 16.7323 21.6446 16.4721 21.5364 16.2443C21.4283 16.0165 21.2383 15.8377 21.0044 15.7436ZM13.9233 4.56787C14.4485 3.98036 15.1067 3.527 15.8428 3.24561C15.6817 4.03784 15.3254 4.77733 14.8061 5.39697C14.4537 5.81984 14.0248 6.17267 13.542 6.43705L13.5391 6.43805C13.5107 6.44977 13.4824 6.46051 13.4541 6.47223C13.2675 6.54547 13.0371 6.63629 12.8593 6.69488C13.031 5.9082 13.3967 5.17699 13.9233 4.56787ZM18.4248 18.9526C17.6211 20.1265 16.9888 20.9595 16.1704 20.9741C15.7748 20.9729 15.3858 20.8725 15.039 20.6821C14.3687 20.3555 13.6334 20.1839 12.8877 20.1801C12.1161 20.184 11.3549 20.3591 10.6592 20.6928C10.3209 20.8655 9.95186 20.9697 9.57322 20.9994H9.54344C8.73044 20.9994 7.85594 19.7368 7.27537 18.8979C5.82273 16.7983 4.48289 12.6147 6.05223 9.89008C6.38132 9.30048 6.85722 8.80597 7.43376 8.45453C8.01031 8.10309 8.66791 7.90665 9.34275 7.88428L9.37644 7.88328C9.94572 7.93166 10.5016 8.08217 11.0176 8.32762C11.1489 8.37937 11.2783 8.43113 11.4067 8.47898C11.4394 8.49266 11.4731 8.50535 11.5073 8.51609C11.8632 8.65922 12.2412 8.73951 12.6245 8.7534C13.1672 8.71026 13.6974 8.56759 14.1885 8.3325C14.8807 7.99652 15.6417 7.82634 16.4111 7.83543C17.2342 7.86763 18.0242 8.16728 18.6616 8.68895C18.1169 9.19081 17.6832 9.80108 17.3884 10.4805C17.0936 11.16 16.9441 11.8936 16.9497 12.6343V12.6353C16.9441 13.5319 17.166 14.4153 17.5946 15.2028C18.0233 15.9903 18.6448 16.6562 19.4009 17.1382C19.1376 17.7744 18.8106 18.3823 18.4248 18.9526Z" fill="#047FFF"/>
</svg>
