<svg width="16" height="16" viewBox="0 0 16 16" fill="none" xmlns="http://www.w3.org/2000/svg">
<path d="M8 5.33325V14.6666M2.66667 9.99992H13.3333M5.2 14.6666H10.8C11.9201 14.6666 12.4802 14.6666 12.908 14.4486C13.2843 14.2569 13.5903 13.9509 13.782 13.5746C14 13.1467 14 12.5867 14 11.4666V8.53325C14 7.41315 14 6.8531 13.782 6.42527C13.5903 6.04895 13.2843 5.74299 12.908 5.55124C12.4802 5.33325 11.9201 5.33325 10.8 5.33325H5.2C4.0799 5.33325 3.51984 5.33325 3.09202 5.55124C2.71569 5.74299 2.40973 6.04895 2.21799 6.42527C2 6.8531 2 7.41315 2 8.53325V11.4666C2 12.5867 2 13.1467 2.21799 13.5746C2.40973 13.9509 2.71569 14.2569 3.09202 14.4486C3.51984 14.6666 4.0799 14.6666 5.2 14.6666ZM7.33333 5.33325C8.33333 4.55548 9.0396 2.52921 10.3333 1.66664C12.3333 0.333185 14.3333 2.33325 12.6667 4.33322C11.6667 5.5332 8.77778 5.33325 7.33333 5.33325ZM8.62085 5.33325C7.62085 4.55548 6.91459 2.52921 5.62085 1.66664C3.62085 0.333185 1.62085 2.33325 3.28752 4.33322C4.28752 5.5332 7.17641 5.33325 8.62085 5.33325Z" stroke="#FF003D" stroke-width="1.5" stroke-linecap="square"/>
</svg>
