<svg width="36" height="36" viewBox="0 0 36 36" fill="none" xmlns="http://www.w3.org/2000/svg">
<path d="M2 10L2.85334 9.81983C4.04812 9.56757 4.64551 9.44144 5.15095 9.57761C5.59555 9.69739 5.99082 9.95484 6.2801 10.3131C6.60897 10.7203 6.7351 11.3177 6.98736 12.5125L9.14939 22.7525C9.40165 23.9473 9.52778 24.5447 9.85665 24.952C10.1459 25.3102 10.5412 25.5677 10.9858 25.6874C11.4912 25.8236 12.0886 25.6975 13.2834 25.4452L34.048 21.0611M19.2568 27.1553C19.5885 28.7262 18.5838 30.2686 17.0129 30.6003C15.4419 30.932 13.8995 29.9274 13.5679 28.3564C13.2362 26.7855 14.2408 25.2431 15.8118 24.9114C17.3827 24.5797 18.9251 25.5843 19.2568 27.1553ZM31.0929 24.6563C31.4246 26.2272 30.42 27.7696 28.849 28.1013C27.2781 28.433 25.7357 27.4283 25.404 25.8574C25.0723 24.2864 26.077 22.7441 27.6479 22.4124C29.2189 22.0807 30.7613 23.0853 31.0929 24.6563ZM29.1507 22.0951L27.1688 12.7084C26.9166 11.5136 26.7905 10.9162 26.4616 10.5089C26.1723 10.1507 25.777 9.89326 25.3324 9.77349C24.827 9.63732 24.2296 9.76345 23.0348 10.0157L15.6392 11.5772C14.4445 11.8294 13.8471 11.9556 13.4398 12.2844C13.0816 12.5737 12.8241 12.969 12.7043 13.4136C12.5682 13.919 12.6943 14.5164 12.9466 15.7112L14.9284 25.0979L29.1507 22.0951Z" stroke="#0AB1BC" stroke-width="3" stroke-linecap="square" stroke-linejoin="round"/>
<path d="M3 30L9 30" stroke="#0AB1BC" stroke-width="3" stroke-linecap="square" stroke-linejoin="round"/>
<path d="M3 26L5 26" stroke="#0AB1BC" stroke-width="3" stroke-linecap="square" stroke-linejoin="round"/>
<path d="M3 22L4 22" stroke="#0AB1BC" stroke-width="3" stroke-linecap="square" stroke-linejoin="round"/>
</svg>
