<svg width="36" height="36" viewBox="0 0 36 36" fill="none" xmlns="http://www.w3.org/2000/svg">
<path d="M18 17.9998L18 31.4998M18 17.9998L5.25 11.2498M18 17.9998L30.75 11.2498M24.75 14.2498L11.25 6.74977M20.3311 31.7047L29.0311 26.8714C29.9297 26.3722 30.3789 26.1226 30.7061 25.7676C30.9955 25.4535 31.2146 25.0812 31.3485 24.6757C31.5 24.2173 31.5 23.7034 31.5 22.6754V13.3241C31.5 12.2962 31.5 11.7822 31.3485 11.3238C31.2146 10.9183 30.9955 10.546 30.7061 10.232C30.3789 9.87695 29.9297 9.62735 29.0311 9.12814L20.3311 4.29481C19.4803 3.82214 19.0549 3.5858 18.6044 3.49315C18.2056 3.41114 17.7944 3.41114 17.3956 3.49315C16.9451 3.5858 16.5197 3.82214 15.6689 4.29481L6.96891 9.12814C6.07034 9.62735 5.62106 9.87695 5.2939 10.232C5.00447 10.546 4.78544 10.9183 4.65145 11.3238C4.5 11.7822 4.5 12.2962 4.5 13.3241V22.6754C4.5 23.7034 4.5 24.2173 4.65145 24.6757C4.78544 25.0812 5.00447 25.4535 5.2939 25.7676C5.62106 26.1226 6.07034 26.3722 6.96892 26.8714L15.6689 31.7047C16.5197 32.1774 16.9451 32.4137 17.3956 32.5064C17.7944 32.5884 18.2056 32.5884 18.6044 32.5064C19.0549 32.4137 19.4803 32.1774 20.3311 31.7047Z" stroke="#047FFF" stroke-width="3" stroke-linecap="round"/>
</svg>
