<svg width="25" height="24" viewBox="0 0 25 24" fill="none" xmlns="http://www.w3.org/2000/svg">
<path d="M21.5 18V12C21.5 7.02944 17.4706 3 12.5 3C7.52944 3 3.5 7.02944 3.5 12V18M6 21C4.61929 21 3.5 19.8807 3.5 18.5V15.5C3.5 14.1193 4.61929 13 6 13C7.38071 13 8.5 14.1193 8.5 15.5V18.5C8.5 19.8807 7.38071 21 6 21ZM19 21C17.6193 21 16.5 19.8807 16.5 18.5V15.5C16.5 14.1193 17.6193 13 19 13C20.3807 13 21.5 14.1193 21.5 15.5V18.5C21.5 19.8807 20.3807 21 19 21Z" stroke="#047FFF" stroke-width="2" stroke-linecap="round" stroke-linejoin="round"/>
</svg>
