<svg width="25" height="24" viewBox="0 0 25 24" fill="none" xmlns="http://www.w3.org/2000/svg">
<path d="M12.5 18V21M12.5 21H8.5M12.5 21H16.5M7.3 17H17.7C19.3802 17 20.2202 17 20.862 16.673C21.4265 16.3854 21.8854 15.9265 22.173 15.362C22.5 14.7202 22.5 13.8802 22.5 12.2V7.8C22.5 6.11984 22.5 5.27976 22.173 4.63803C21.8854 4.07354 21.4265 3.6146 20.862 3.32698C20.2202 3 19.3802 3 17.7 3H7.3C5.61984 3 4.77976 3 4.13803 3.32698C3.57354 3.6146 3.1146 4.07354 2.82698 4.63803C2.5 5.27976 2.5 6.11984 2.5 7.8V12.2C2.5 13.8802 2.5 14.7202 2.82698 15.362C3.1146 15.9265 3.57354 16.3854 4.13803 16.673C4.77976 17 5.61984 17 7.3 17Z" stroke="#047FFF" stroke-width="2" stroke-linecap="round" stroke-linejoin="round"/>
</svg>
