<svg width="36" height="36" viewBox="0 0 36 36" fill="none" xmlns="http://www.w3.org/2000/svg">
<path d="M27.498 15.75H27.513M8.67773 20.25H8.69274M18 28.5C18 28.5 21.75 27 25.5 27C26.2992 27 27.0984 27.0681 27.8613 27.1754C29.968 27.4714 31.0214 27.6195 31.571 27.4041C32.123 27.1878 32.4192 26.9303 32.7102 26.4138C33 25.8995 33 24.9939 33 23.1827V9.93732C33 9.08355 33 8.65666 32.8287 8.24311C32.6913 7.91165 32.4041 7.53739 32.1194 7.31902C31.7642 7.04658 31.403 6.94988 30.6805 6.75647C29.2716 6.37933 27.3858 6 25.5 6C21.75 6 18 7.5 18 7.5M18 28.5C18 28.5 14.25 30 10.5 30C8.61421 30 6.72842 29.6207 5.31951 29.2435C4.59702 29.0501 4.23577 28.9534 3.88059 28.681C3.59591 28.4626 3.30866 28.0883 3.17133 27.7569C3 27.3433 3 26.9164 3 26.0627V12.8173C3 11.0061 3 10.1005 3.28977 9.58624C3.58085 9.06966 3.87698 8.81224 4.42903 8.59589C4.97862 8.38052 6.03197 8.52856 8.13868 8.82465C8.90158 8.93187 9.70079 9 10.5 9C14.25 9 18 7.5 18 7.5M18 28.5Cnan nan nan nan nan nanCnan nan nan nan nan nanCnan nan nan nan nan nanCnan nan nan nan nan nanCnan nan nan nan nan nanCnan nan nan nan nan nanCnan nan nan nan nan nanCnan nan nan nan nan nanCnan nan nan nan 18 28.5ZM18 7.5Cnan nan nan nan nan nanCnan nan nan nan nan nanCnan nan nan nan nan nanCnan nan nan nan nan nanLnan nanCnan nan nan nan nan nanCnan nan nan nan nan nanCnan nan nan nan nan nanCnan nan nan nan 18 7.5ZM28.248 15.75C28.248 16.1642 27.9123 16.5 27.498 16.5C27.0838 16.5 26.748 16.1642 26.748 15.75C26.748 15.3358 27.0838 15 27.498 15C27.9123 15 28.248 15.3358 28.248 15.75ZM9.42773 20.25C9.42773 20.6642 9.09195 21 8.67773 21C8.26352 21 7.92773 20.6642 7.92773 20.25C7.92773 19.8358 8.26352 19.5 8.67773 19.5C9.09195 19.5 9.42773 19.8358 9.42773 20.25ZM21.8936 18C21.8936 20.1018 20.1897 21.8057 18.0879 21.8057C15.9861 21.8057 14.2822 20.1018 14.2822 18C14.2822 15.8982 15.9861 14.1943 18.0879 14.1943C20.1897 14.1943 21.8936 15.8982 21.8936 18Z" stroke="#33860F" stroke-width="3" stroke-linecap="round" stroke-linejoin="round"/>
</svg>
