<svg width="36" height="36" viewBox="0 0 36 36" fill="none" xmlns="http://www.w3.org/2000/svg">
<path d="M3 17.7C3 15.1798 3 13.9196 3.49047 12.957C3.9219 12.1103 4.61031 11.4219 5.45704 10.9905C6.41965 10.5 7.67976 10.5 10.2 10.5H25.8C28.3202 10.5 29.5804 10.5 30.543 10.9905C31.3897 11.4219 32.0781 12.1103 32.5095 12.957C33 13.9196 33 15.1798 33 17.7V24.3C33 26.8202 33 28.0804 32.5095 29.043C32.0781 29.8897 31.3897 30.5781 30.543 31.0095C29.5804 31.5 28.3202 31.5 25.8 31.5H10.2C7.67976 31.5 6.41965 31.5 5.45704 31.0095C4.61031 30.5781 3.9219 29.8897 3.49047 29.043C3 28.0804 3 26.8202 3 24.3V17.7Z" stroke="#047FFF" stroke-width="3" stroke-linecap="round"/>
<path d="M12 10.5C12 9.10504 12 8.40756 12.1533 7.83531C12.5694 6.2824 13.7824 5.06944 15.3353 4.65333C15.9076 4.5 16.605 4.5 18 4.5C19.395 4.5 20.0924 4.5 20.6647 4.65333C22.2176 5.06944 23.4306 6.2824 23.8467 7.83531C24 8.40756 24 9.10504 24 10.5H12Z" stroke="#047FFF" stroke-width="3" stroke-linecap="round"/>
<path d="M19.5 22.2C19.5 21.78 19.5 21.5699 19.5817 21.4095C19.6537 21.2684 19.7684 21.1537 19.9095 21.0817C20.0699 21 20.28 21 20.7 21H27.3C27.72 21 27.9301 21 28.0905 21.0817C28.2316 21.1537 28.3463 21.2684 28.4183 21.4095C28.5 21.5699 28.5 21.78 28.5 22.2V25.8C28.5 26.22 28.5 26.4301 28.4183 26.5905C28.3463 26.7316 28.2316 26.8463 28.0905 26.9183C27.9301 27 27.72 27 27.3 27H20.7C20.28 27 20.0699 27 19.9095 26.9183C19.7684 26.8463 19.6537 26.7316 19.5817 26.5905C19.5 26.4301 19.5 26.22 19.5 25.8V22.2Z" stroke="#047FFF" stroke-width="3" stroke-linecap="round"/>
</svg>
