<svg width="36" height="36" viewBox="0 0 36 36" fill="none" xmlns="http://www.w3.org/2000/svg">
<path d="M3 15H33M9.68848 21.7253H13.3271M10.2 28.5H25.8C28.3202 28.5 29.5804 28.5 30.543 28.0095C31.3897 27.5781 32.0781 26.8897 32.5095 26.043C33 25.0804 33 23.8202 33 21.3V14.7C33 12.1798 33 10.9196 32.5095 9.95704C32.0781 9.11031 31.3897 8.4219 30.543 7.99047C29.5804 7.5 28.3202 7.5 25.8 7.5H10.2C7.67976 7.5 6.41965 7.5 5.45704 7.99047C4.61031 8.4219 3.9219 9.11031 3.49047 9.95704C3 10.9196 3 12.1798 3 14.7V21.3C3 23.8202 3 25.0804 3.49047 26.043C3.9219 26.8897 4.61031 27.5781 5.45704 28.0095C6.41965 28.5 7.67976 28.5 10.2 28.5Z" stroke="#AF41FC" stroke-width="3" stroke-linecap="square" stroke-linejoin="round"/>
</svg>
