<svg width="25" height="24" viewBox="0 0 25 24" fill="none" xmlns="http://www.w3.org/2000/svg">
<path d="M11.5 6H13.5M11.3 21H13.7C15.3802 21 16.2202 21 16.862 20.673C17.4265 20.3854 17.8854 19.9265 18.173 19.362C18.5 18.7202 18.5 17.8802 18.5 16.2V7.8C18.5 6.11984 18.5 5.27976 18.173 4.63803C17.8854 4.07354 17.4265 3.6146 16.862 3.32698C16.2202 3 15.3802 3 13.7 3H11.3C9.61984 3 8.77976 3 8.13803 3.32698C7.57354 3.6146 7.1146 4.07354 6.82698 4.63803C6.5 5.27976 6.5 6.11984 6.5 7.8V16.2C6.5 17.8802 6.5 18.7202 6.82698 19.362C7.1146 19.9265 7.57354 20.3854 8.13803 20.673C8.77976 21 9.61984 21 11.3 21Z" stroke="#047FFF" stroke-width="2" stroke-linecap="round" stroke-linejoin="round"/>
</svg>
