<svg width="25" height="24" viewBox="0 0 25 24" fill="none" xmlns="http://www.w3.org/2000/svg">
<path d="M17.5 2H7.5C6.70435 2 5.94129 2.31607 5.37868 2.87868C4.81607 3.44129 4.5 4.20435 4.5 5V19C4.5 19.7956 4.81607 20.5587 5.37868 21.1213C5.94129 21.6839 6.70435 22 7.5 22H17.5C18.2956 22 19.0587 21.6839 19.6213 21.1213C20.1839 20.5587 20.5 19.7956 20.5 19V5C20.5 4.20435 20.1839 3.44129 19.6213 2.87868C19.0587 2.31607 18.2956 2 17.5 2ZM18.5 19C18.5 19.2652 18.3946 19.5196 18.2071 19.7071C18.0196 19.8946 17.7652 20 17.5 20H7.5C7.23478 20 6.98043 19.8946 6.79289 19.7071C6.60536 19.5196 6.5 19.2652 6.5 19V5C6.5 4.73478 6.60536 4.48043 6.79289 4.29289C6.98043 4.10536 7.23478 4 7.5 4H17.5C17.7652 4 18.0196 4.10536 18.2071 4.29289C18.3946 4.48043 18.5 4.73478 18.5 5V19ZM13.21 16.29C13.0945 16.1696 12.9508 16.08 12.7919 16.0293C12.6329 15.9787 12.4638 15.9686 12.3 16L12.12 16.06C12.0563 16.0819 11.9957 16.1122 11.94 16.15L11.79 16.27C11.699 16.3651 11.6276 16.4772 11.58 16.6C11.5034 16.7821 11.4825 16.9828 11.5199 17.1768C11.5572 17.3708 11.6512 17.5494 11.79 17.69C11.8895 17.778 12.0005 17.852 12.12 17.91C12.3031 17.9853 12.5044 18.0046 12.6984 17.9655C12.8924 17.9263 13.0705 17.8304 13.21 17.69C13.3923 17.5062 13.4963 17.2589 13.5 17C13.5034 16.8688 13.476 16.7387 13.42 16.62C13.3694 16.4988 13.2983 16.3872 13.21 16.29Z" fill="#047FFF"/>
</svg>
