<svg width="25" height="24" viewBox="0 0 25 24" fill="none" xmlns="http://www.w3.org/2000/svg">
<path d="M10.5004 6V7M14.5004 6V7M17.9182 12V4.4C17.9182 3.55992 17.9182 3.13988 17.7547 2.81901C17.6109 2.53677 17.3814 2.3073 17.0992 2.16349C16.7783 2 16.3583 2 15.5182 2H9.4826C8.64252 2 8.22248 2 7.90161 2.16349C7.61937 2.3073 7.3899 2.53677 7.24609 2.81901C7.0826 3.13988 7.0826 3.55992 7.0826 4.4V12H17.9182ZM10.5004 20H14.5004V22H10.5004V20ZM11.1283 20H13.8724C14.5358 20 14.8675 20 15.1466 19.9686C17.4647 19.7074 19.2941 17.8779 19.5553 15.5598C19.5867 15.2808 19.5867 14.9491 19.5867 14.2857C19.5867 14.0204 19.5867 13.8877 19.5742 13.7761C19.4697 12.8488 18.7379 12.1171 17.8107 12.0126C17.699 12 17.5664 12 17.301 12H7.69978C7.43442 12 7.30174 12 7.19013 12.0126C6.26289 12.1171 5.53111 12.8488 5.42664 13.7761C5.41406 13.8877 5.41406 14.0204 5.41406 14.2857C5.41406 14.9491 5.41406 15.2808 5.4455 15.5598C5.70669 17.8779 7.53614 19.7074 9.85424 19.9686C10.1333 20 10.465 20 11.1283 20Z" stroke="#047FFF" stroke-width="2" stroke-linecap="round" stroke-linejoin="round"/>
</svg>
