<svg width="25" height="24" viewBox="0 0 25 24" fill="none" xmlns="http://www.w3.org/2000/svg">
<path d="M17.5 18.5L17.1631 19.6791C16.9254 20.511 16.8066 20.927 16.5639 21.2358C16.3498 21.5083 16.0685 21.7205 15.7476 21.8515C15.3841 22 14.9515 22 14.0862 22H10.9138C10.0485 22 9.61592 22 9.25239 21.8515C8.93152 21.7205 8.65022 21.5083 8.43606 21.2358C8.19343 20.927 8.07458 20.511 7.83689 19.6791L7.5 18.5M17.5 5.5L17.1631 4.32089C16.9254 3.48896 16.8066 3.07298 16.5639 2.76423C16.3498 2.49171 16.0685 2.27953 15.7476 2.14847C15.3841 2 14.9515 2 14.0862 2H10.9138C10.0485 2 9.61592 2 9.25239 2.14847C8.93152 2.27953 8.65022 2.49171 8.43606 2.76423C8.19343 3.07299 8.07458 3.48895 7.83689 4.32089L7.5 5.5M12.5 9V12L14 13.5M9.2 18.5H15.8C16.9201 18.5 17.4802 18.5 17.908 18.282C18.2843 18.0903 18.5903 17.7843 18.782 17.408C19 16.9802 19 16.4201 19 15.3V8.7C19 7.57989 19 7.01984 18.782 6.59202C18.5903 6.21569 18.2843 5.90973 17.908 5.71799C17.4802 5.5 16.9201 5.5 15.8 5.5H9.2C8.0799 5.5 7.51984 5.5 7.09202 5.71799C6.71569 5.90973 6.40973 6.21569 6.21799 6.59202C6 7.01984 6 7.57989 6 8.7V15.3C6 16.4201 6 16.9802 6.21799 17.408C6.40973 17.7843 6.71569 18.0903 7.09202 18.282C7.51984 18.5 8.07989 18.5 9.2 18.5Z" stroke="#047FFF" stroke-width="2" stroke-linecap="round" stroke-linejoin="round"/>
</svg>
