<svg width="36" height="36" viewBox="0 0 36 36" fill="none" xmlns="http://www.w3.org/2000/svg">
<path d="M30 15.75V14.4173C30 13.2506 30 12.6672 29.8616 12.1221C29.8512 12.0812 29.8403 12.0405 29.8288 12M13.5 33H13.2C10.6798 33 9.41965 33 8.45704 32.5095C7.61031 32.0781 6.9219 31.3897 6.49047 30.543C6 29.5804 6 28.3202 6 25.8V10.2C6 7.67976 6 6.41965 6.49047 5.45704C6.9219 4.61031 7.61031 3.9219 8.45704 3.49047C9.41965 3 10.6798 3 13.2 3H18.1993C19.2347 3 19.7525 3 20.243 3.11101C20.5023 3.16972 20.7557 3.25123 21 3.3544M21 3.3544C21.1654 3.42425 21.3267 3.50403 21.483 3.59339C21.9196 3.84299 22.3013 4.19284 23.0645 4.89249L27.6652 9.10978C28.5253 9.89818 28.9553 10.2924 29.2636 10.7627C29.5137 11.1443 29.7042 11.5616 29.8288 12M21 3.3544V3M21 3.3544V8.4C21 9.66012 21 10.2902 21.2452 10.7715C21.461 11.1948 21.8052 11.5391 22.2285 11.7548C22.7098 12 23.3399 12 24.6 12H29.8288M29.8288 12H30M24.455 22.682L25.5156 21.6213C26.0088 21.1281 26.2554 20.8815 26.5119 20.7334C27.2081 20.3315 28.0658 20.3315 28.7619 20.7334C29.0185 20.8815 29.2651 21.1281 29.7583 21.6213C30.2514 22.1145 30.498 22.3611 30.6462 22.6176C31.0481 23.3138 31.0481 24.1715 30.6462 24.8676C30.498 25.1242 30.2514 25.3708 29.7583 25.864L28.6976 26.9246M24.455 22.682L20.4527 26.6842C20.1662 26.9707 20.023 27.1139 19.9092 27.2771C19.8082 27.422 19.7245 27.5782 19.6601 27.7426C19.5874 27.9279 19.5477 28.1265 19.4682 28.5238L18.9743 30.9932C18.8563 31.5834 18.7973 31.8784 18.8844 32.0889C18.9605 32.2729 19.1067 32.4191 19.2907 32.4952C19.5011 32.5823 19.7962 32.5233 20.3864 32.4052L22.8558 31.9114C23.2531 31.8319 23.4517 31.7922 23.6369 31.7195C23.8013 31.655 23.9576 31.5714 24.1024 31.4704C24.2656 31.3566 24.4089 31.2133 24.6954 30.9269L28.6976 26.9246M24.455 22.682L28.6976 26.9246" stroke="#047FFF" stroke-width="3" stroke-linecap="round"/>
</svg>
