<svg width="36" height="36" viewBox="0 0 36 36" fill="none" xmlns="http://www.w3.org/2000/svg">
<path d="M30 16.5C30 23.9404 23.0118 29.6338 19.7011 31.9136C19.1918 32.2643 18.9371 32.4396 18.5375 32.5379C18.2379 32.6116 17.7621 32.6116 17.4625 32.5379C17.0629 32.4396 16.8082 32.2643 16.2989 31.9136C12.9882 29.6338 6 23.9404 6 16.5C6 9.87258 11.3726 4.5 18 4.5C24.6274 4.5 30 9.87258 30 16.5Z" stroke="#047FFF" stroke-width="3" stroke-linecap="round"/>
<path d="M21.8977 16.5001C21.8977 18.6527 20.1526 20.3978 18 20.3978C15.8474 20.3978 14.1023 18.6527 14.1023 16.5001C14.1023 14.3475 15.8474 12.6024 18 12.6024C20.1526 12.6024 21.8977 14.3475 21.8977 16.5001Z" stroke="#047FFF" stroke-width="3" stroke-linecap="round"/>
</svg>
