<svg width="36" height="36" viewBox="0 0 36 36" fill="none" xmlns="http://www.w3.org/2000/svg">
<path d="M19.3536 3C26.8095 3 32.8536 9.04416 32.8536 16.5M20.8536 9C24.1673 9 26.8536 11.6863 26.8536 15M10.871 25.1301C13.877 28.1361 17.1135 30.0528 19.7667 31.2523C19.8993 31.3122 19.9655 31.3422 20.7208 31.5364C22.7096 32.0479 26.4569 31.3645 28.137 30.1838C28.7751 29.7354 29.0496 29.4609 29.5986 28.9119C30.162 28.3485 30.4437 28.0668 30.6235 27.7806C31.2366 26.8048 31.2366 25.5641 30.6235 24.5884C30.4437 24.3022 30.162 24.0205 29.5986 23.4571L29.1967 23.0552C28.644 22.5025 28.3676 22.2261 28.054 22.065C27.5913 21.8273 27.0605 21.7573 26.552 21.8669C26.2074 21.9411 25.8688 22.1364 25.1916 22.5269L23.5402 23.4792C23.1921 23.6799 23.018 23.7803 22.7658 23.8412C22.5834 23.8852 22.269 23.8996 22.0834 23.8725C21.8266 23.8349 21.6885 23.7714 21.4123 23.6442C20.2921 23.1285 18.4327 22.0604 16.3749 20.0025C14.2716 17.8993 13.2022 16.0033 12.6998 14.892C12.5837 14.6351 12.5256 14.5067 12.488 14.2653C12.4609 14.0914 12.4683 13.7936 12.5042 13.6213C12.5539 13.3821 12.6398 13.2152 12.8114 12.8813L13.7536 11.0488C14.1526 10.2728 14.3521 9.8848 14.4017 9.49021C14.4544 9.07035 14.3877 8.64413 14.2092 8.26047C14.0414 7.8999 13.7329 7.59139 13.1159 6.97437L12.5441 6.40258C11.9807 5.83918 11.699 5.55747 11.4128 5.37764C10.437 4.76453 9.19634 4.76453 8.22059 5.37764C7.93438 5.55747 7.65268 5.83918 7.08928 6.40258C6.54025 6.9516 6.26574 7.22612 5.8174 7.86413C4.63672 9.54431 3.95326 13.2916 4.46475 15.2804C4.65898 16.0356 4.68895 16.1019 4.74888 16.2345C5.94834 18.8877 7.86506 22.1241 10.871 25.1301Z" stroke="#047FFF" stroke-width="3" stroke-linecap="round"/>
</svg>
