<svg width="24" height="24" viewBox="0 0 24 24" fill="none" xmlns="http://www.w3.org/2000/svg">
<path d="M18.332 10.5H18.342M5.78516 13.5H5.79516M12 19C12 19 14.5 18 17 18C17.5328 18 18.0656 18.0454 18.5742 18.1169C19.9787 18.3143 20.6809 18.413 21.0473 18.2694C21.4153 18.1252 21.6128 17.9536 21.8068 17.6092C22 17.2663 22 16.6626 22 15.4551V6.62488C22 6.0557 22 5.77111 21.8858 5.49541C21.7942 5.27443 21.6027 5.02493 21.4129 4.87935C21.1762 4.69772 20.9353 4.63325 20.4537 4.50432C19.5144 4.25289 18.2572 4 17 4C14.5 4 12 5 12 5M12 19C12 19 9.5 20 7 20C5.74281 20 4.48561 19.7471 3.54634 19.4957C3.06468 19.3667 2.82385 19.3023 2.58706 19.1206C2.39727 18.9751 2.20577 18.7256 2.11422 18.5046C2 18.2289 2 17.9443 2 17.3751V8.54488C2 7.3374 2 6.73366 2.19318 6.39082C2.38723 6.04644 2.58465 5.87483 2.95269 5.7306C3.31908 5.58701 4.02131 5.68571 5.42578 5.8831C5.93439 5.95458 6.46719 6 7 6C9.5 6 12 5 12 5M12 19Cnan nan nan nan nan nanCnan nan nan nan nan nanCnan nan nan nan nan nanCnan nan nan nan nan nanCnan nan nan nan nan nanCnan nan nan nan nan nanCnan nan nan nan nan nanCnan nan nan nan nan nanCnan nan nan nan 12 19ZM12 5Cnan nan nan nan nan nanCnan nan nan nan nan nanCnan nan nan nan nan nanCnan nan nan nan nan nanLnan nanCnan nan nan nan nan nanCnan nan nan nan nan nanCnan nan nan nan nan nanCnan nan nan nan 12 5ZM18.832 10.5C18.832 10.7761 18.6082 11 18.332 11C18.0559 11 17.832 10.7761 17.832 10.5C17.832 10.2239 18.0559 10 18.332 10C18.6082 10 18.832 10.2239 18.832 10.5ZM6.28516 13.5C6.28516 13.7761 6.0613 14 5.78516 14C5.50901 14 5.28516 13.7761 5.28516 13.5C5.28516 13.2239 5.50901 13 5.78516 13C6.0613 13 6.28516 13.2239 6.28516 13.5ZM14.5957 12C14.5957 13.4012 13.4598 14.5371 12.0586 14.5371C10.6574 14.5371 9.52148 13.4012 9.52148 12C9.52148 10.5988 10.6574 9.46289 12.0586 9.46289C13.4598 9.46289 14.5957 10.5988 14.5957 12Z" stroke="#047FFF" stroke-width="2" stroke-linecap="square"/>
</svg>
