<svg width="48" height="71" viewBox="0 0 48 71" fill="none" xmlns="http://www.w3.org/2000/svg">
<g filter="url(#filter0_d_364_22795)">
<path d="M7.51425 28.7385V10.0206L27.8967 3.78125L40.5479 10.0206V28.3919L43.3593 30.1251L40.5479 38.7908V52.3093L31.0595 65.4812H17.0026L7.51425 52.3093V40.1773L4.70288 30.1251L7.51425 28.7385Z" fill="white" stroke="white" stroke-width="6"/>
<path fill-rule="evenodd" clip-rule="evenodd" d="M8.15645 29.5813V39.8512L15.7281 43.7973L20.1195 41.1613V32.053C18.8276 31.7987 17.4685 31.6437 16.1095 31.5881C14.6711 31.5324 13.2221 31.5987 11.8294 31.8212L11.5823 31.8543L8.15645 29.5826V29.5813ZM32.8132 61.7025V44.8968L35.6441 43.4185V58.0902H36.9132V42.7562L39.7549 41.2712V52.3293L36.924 56.1735V58.1233H35.5877V57.9352L32.8132 61.7038V61.7025ZM19.209 47.4533H16.378V44.8676L19.209 43.1708V47.4533ZM23.3211 47.4533V42.1468H20.9199L20.4794 42.4104V47.4533H23.3211ZM27.4319 47.4533V42.6184L26.5778 42.1455H24.5889V47.452H27.4306L27.4319 47.4533ZM31.5441 47.4533V44.8954L28.7024 43.3218V47.4533H31.5441ZM18.9068 51.2643C18.0003 50.6232 17.1543 49.8112 16.3794 48.8296V48.7051H31.5441V48.7714C30.792 49.7688 29.9795 50.5795 29.1173 51.2193C27.5112 52.4048 25.7586 52.9811 24.006 52.9811C22.2535 52.9811 20.5009 52.3942 18.9068 51.2643ZM19.209 59.4771L16.378 57.816V63.5159L17.2993 64.7704H19.1862V65.4022H20.4553V65.3691H19.209V59.4771ZM23.3211 57.5166L20.4902 56.339V60.2282L20.4794 60.2216V64.7704H23.2876V65.4022H24.5567V65.3691H23.3211V57.5166ZM28.701 64.7704V59.4837L31.5427 57.816V63.663H32.7554V63.6855H31.4863V63.508L30.565 64.7717H28.6997L28.701 64.7704ZM24.5902 64.7704V57.5074L27.4319 56.2728V65.3691H28.6567V65.4022H27.3876V64.7704H24.5902ZM16.3794 52.7612V56.3616L19.2103 58.024V54.4567L23.9564 56.4185L28.7024 54.3468V58.0253L31.5333 56.3629V52.7625H31.5441V50.7398C31.0136 51.3041 30.4563 51.8008 29.8815 52.23C28.051 53.5811 26.0285 54.2461 24.006 54.2355C21.9835 54.2355 19.9731 53.5705 18.1642 52.2856C17.5424 51.8485 16.9434 51.3345 16.378 50.7504V52.7625L16.3794 52.7612ZM12.2672 43.4118V57.9273L15.0861 61.7568V63.6842H16.3552V63.663H15.1089V44.8968L12.2672 43.4118ZM16.1538 30.3125C17.0831 30.3575 18.003 30.4449 18.8961 30.5694L16.9824 28.9984H16.9743C15.7979 29.2104 14.7692 29.3932 13.8506 29.7468C13.2543 29.976 12.6889 30.2237 12.1356 30.486C13.4477 30.3151 14.8054 30.2595 16.1538 30.3111V30.3125ZM8.64395 28.3838L10.7457 29.7747C11.6146 29.3388 12.4687 28.9256 13.4034 28.5732C14.471 28.1745 15.6703 27.9347 17.0737 27.7135L17.3651 27.6698L20.1195 29.9363V27.9307L11.9423 26.0577L8.78764 28.2619L8.79705 28.2738L8.64395 28.3838ZM6.88736 29.6422V35.6574L5.47188 30.6555L6.88736 29.6409V29.6422ZM41.024 40.3162V52.7387L31.2513 66.001H16.6816C15.0472 63.7901 13.4155 61.5806 11.7838 59.3698C10.1521 57.159 8.52174 54.9482 6.88736 52.7387V40.3175L6.91019 40.4062L7.51721 40.2407L7.22578 40.7943L8.1578 41.2818V52.3399L10.9888 56.1841V58.1114H12.2578V58.0902H10.9995V42.7495L7.23653 40.7838L7.52929 40.2287L6.91019 40.397L4 30.1469L6.88736 28.0963V28.0751L8.1296 27.2035L6.88736 28.0632V16.6739V9.47186C12.2928 7.83062 17.6982 6.18144 23.1089 4.53226L23.117 4.52962L23.1546 4.51769L23.1788 4.50974C24.8279 4.00638 26.4784 3.50434 28.1289 3.00098C30.2803 4.09248 32.4277 5.18399 34.5751 6.27417C36.7239 7.36567 38.8712 8.45718 41.0227 9.54736V28.148L44 29.8462L41.0227 40.3148L41.024 40.3162ZM37.3174 29.7296C36.3317 29.2474 35.2641 28.7825 34.2394 28.4063C33.1274 27.9851 32.3821 27.7294 31.54 27.5744L31.1922 27.5082L28.7024 29.8117L27.6911 28.0195L35.3178 26.0246L39.215 28.3825L39.1868 28.4315L37.3174 29.7296ZM36.1289 30.5549L36.0483 30.6118C34.9592 30.3906 33.7452 30.2793 32.5325 30.2568C31.6891 30.2489 30.8404 30.2807 30.0279 30.3562L31.6528 28.8938C32.3606 29.0593 32.9031 29.2607 33.8016 29.5932C34.5765 29.878 35.3715 30.2065 36.1289 30.5562V30.5549ZM40.2961 29.1799L40.2894 29.1852L41.0253 29.6038V35.664L39.8462 39.7969L39.7455 39.8525V29.564L36.5439 31.7868L36.0389 31.8861C34.9498 31.653 33.725 31.5205 32.5002 31.5099C31.2419 31.4874 29.9728 31.5762 28.8273 31.7643L28.1759 31.4543L26.1883 27.9202L26.5818 27.0114L35.2533 24.7291L35.7475 24.7953L39.7468 27.2168V16.6739H8.1672V27.177L11.6723 24.7185L21.4007 26.9452V40.8844H26.9162L32.1954 43.8092L39.8503 39.8088L42.508 30.4462L40.2961 29.1812V29.1799ZM36.7709 15.4208H39.7549V10.313L39.3238 10.0944L36.7695 15.4208H36.7709ZM35.3594 15.4208H32.2182L35.6696 8.23994L38.1944 9.52087L35.3608 15.4208H35.3594ZM27.679 15.4208H30.8108L34.5415 7.66769L32.0128 6.38544L27.679 15.4208ZM26.2622 15.4208H23.1331L28.3613 4.53226L30.8847 5.81187L26.2622 15.4195V15.4208ZM18.5832 15.4208H21.7217L26.8706 4.69784L23.1976 5.81584L18.5832 15.4208ZM17.1811 15.4208H14.0346L17.8768 7.43456L21.5444 6.31788L17.1811 15.4208ZM9.49673 15.4208H12.6325L16.2182 7.93924L12.5533 9.05459L9.49538 15.4208H9.49673ZM8.1672 15.2486L10.9001 9.55928L8.1672 10.3912V15.2486Z" fill="#1A1C1E"/>
</g>
<defs>
<filter id="filter0_d_364_22795" x="0.143311" y="0.564453" width="47.7971" height="69.917" filterUnits="userSpaceOnUse" color-interpolation-filters="sRGB">
<feFlood flood-opacity="0" result="BackgroundImageFix"/>
<feColorMatrix in="SourceAlpha" type="matrix" values="0 0 0 0 0 0 0 0 0 0 0 0 0 0 0 0 0 0 127 0" result="hardAlpha"/>
<feOffset dy="1"/>
<feGaussianBlur stdDeviation="0.5"/>
<feComposite in2="hardAlpha" operator="out"/>
<feColorMatrix type="matrix" values="0 0 0 0 0.290731 0 0 0 0 0.370004 0 0 0 0 0.4525 0 0 0 1 0"/>
<feBlend mode="normal" in2="BackgroundImageFix" result="effect1_dropShadow_364_22795"/>
<feBlend mode="normal" in="SourceGraphic" in2="effect1_dropShadow_364_22795" result="shape"/>
</filter>
</defs>
</svg>
