<svg width="42" height="68" viewBox="0 0 42 68" fill="none" xmlns="http://www.w3.org/2000/svg">
<path fill-rule="evenodd" clip-rule="evenodd" d="M38.8818 26.6381V6.96551C34.3684 4.64509 29.8508 2.32042 25.3375 0C17.9045 2.29492 10.4758 4.58559 3.04277 6.88051C3.04277 13.4805 3.04277 20.0805 3.04277 26.6806L-0.00012207 28.8437L3.04277 39.7106C3.04277 44.1177 3.04277 48.5205 3.04277 52.9276C6.4724 57.6322 9.89778 62.3411 13.3232 67.0456H28.6226L38.8775 52.9276V39.7064L41.9969 28.5717L38.8775 26.6381H38.8818Z" fill="#1A1C1E"/>
<path fill-rule="evenodd" clip-rule="evenodd" d="M4.38138 13.217L7.35203 6.94417L4.38138 7.86214V13.217ZM13.0086 48.6735C13.952 50.0717 15.125 51.1384 16.4085 51.8778C17.8449 52.7066 19.4216 53.1316 20.9558 53.1571C22.4942 53.1316 24.0667 52.7066 25.5031 51.8778C26.7951 51.1341 27.9723 50.0589 28.92 48.648H13.0086V48.6692V48.6735ZM28.92 50.8111C28.92 52.8043 28.92 54.7975 28.92 56.7907L25.9451 58.5629V54.6445L20.9558 56.8502L15.9835 54.7677V58.5671L13.0086 56.7949V50.8324C13.833 51.7334 14.7595 52.4686 15.7455 53.0381C17.3859 53.9858 19.1879 54.466 20.9515 54.4958H20.9685C22.7322 54.4703 24.5342 53.9858 26.1746 53.0381C27.1648 52.4643 28.0998 51.7249 28.9285 50.8154L28.92 50.8111ZM13.0086 47.3135H15.9835V42.7492L13.0086 44.5596V47.3178V47.3135ZM17.3179 47.3135H20.2928V41.6527H17.7854L17.3179 41.9374V47.3178V47.3135ZM21.6315 47.3135H24.6064V42.1542L23.714 41.6527H21.6315V47.3135ZM25.9451 47.3135H28.92V44.5766L25.9451 42.9064V47.3178V47.3135ZM28.92 58.3419L25.9451 60.1141V65.7069H27.9468L28.92 64.3682V58.3376V58.3419ZM24.6064 56.6929L21.6315 58.0061V65.7069H24.6064V56.6929ZM20.2928 58.0146L17.3179 56.7694V65.7069H20.2928V58.0146ZM15.9835 60.1141L13.0086 58.3419V64.3469L14.003 65.7111H15.9877V60.1183L15.9835 60.1141ZM25.9281 28.4739L28.257 26.111C29.4937 26.349 30.5987 26.621 31.7802 27.0672C32.8426 27.4667 33.8583 27.9894 34.8698 28.5164L36.982 27.029L32.8809 24.4876L24.8657 26.4935L25.9281 28.4782V28.4739ZM33.6416 29.3749C32.4984 29.1496 31.2362 29.0604 29.9612 29.0392C29.0093 29.0222 28.0531 29.0391 27.1393 29.1284L28.7203 27.5687C29.464 27.7387 30.365 27.9597 31.3084 28.3167C32.1159 28.6184 32.8724 28.9797 33.6374 29.3791L33.6416 29.3749ZM7.08429 28.4952C7.99375 28.0319 8.89472 27.5942 9.88069 27.216C11.2576 26.689 12.5708 26.3745 14.02 26.1407L16.9312 28.6439V26.536L8.34224 24.5428L4.87011 27.012L7.08004 28.4952H7.08429ZM15.7072 29.3494C14.751 29.2134 13.7651 29.1241 12.7748 29.0859C11.3511 29.0307 9.91469 29.0859 8.52074 29.2729C9.11571 28.9839 9.71919 28.7119 10.3567 28.4697C11.3299 28.0957 12.3881 27.7854 13.6248 27.5645L15.7072 29.3536V29.3494ZM38.8817 34.7594L40.4456 29.1751L38.8817 28.2062V34.7637V34.7594ZM3.04693 28.3124L1.54248 29.3834L3.04693 34.7637V28.3167V28.3124ZM33.5099 13.217L36.3743 7.17367L33.6586 5.77546L30.1355 13.217H33.5141H33.5099ZM37.5472 7.80689L34.9888 13.2127H37.5472V7.80689ZM28.6523 13.217L32.4644 5.16348L29.7487 3.76529L25.2736 13.217H28.6523ZM23.799 13.217L28.563 3.15755L25.8474 1.75936L20.4203 13.217H23.799ZM18.9456 13.217L24.4109 1.68286L20.4543 2.90257L15.5712 13.217H18.9499H18.9456ZM14.0923 13.217L18.7246 3.4338L14.7595 4.65776H14.7638L10.7137 13.217H14.0923ZM9.23471 13.217H5.85608L9.07747 6.41294L13.0341 5.19324L9.23471 13.2212V13.217ZM30.2587 44.5851V62.528L33.2336 58.4311V43.0084L30.2587 44.5851ZM34.5681 42.3029V56.5952L37.543 52.4983V40.7305L34.5681 42.3072V42.3029ZM11.6699 62.5067V44.5809L8.69498 43.0042V58.4184L11.6699 62.5025V62.5067ZM7.35628 56.5867V42.3029L4.38138 40.7262V52.4983L7.35628 56.5824V56.5867ZM25.6221 30.7008C27.0756 30.4331 28.461 30.3481 29.94 30.3736C31.3339 30.3991 32.5834 30.5181 33.9391 30.8071L37.543 28.2657V39.2218L29.5957 43.4291L24.0582 40.3183H18.2699V25.482L8.06175 23.1106L4.37713 25.7285V14.5557H37.543V25.8135L33.0891 23.0554L23.7182 25.414L23.3017 26.3957L25.6221 30.7093V30.7008ZM16.9354 40.6115L12.3159 43.4206L4.38138 39.2218V28.2912L7.97676 30.7051L8.23599 30.6626C9.69369 30.4288 11.2194 30.3609 12.7281 30.4161C14.1603 30.4713 15.584 30.6456 16.9354 30.9133V40.6115Z" fill="white"/>
</svg>
