<svg width="132" height="145" viewBox="0 0 132 145" fill="none" xmlns="http://www.w3.org/2000/svg">
<path fill-rule="evenodd" clip-rule="evenodd" d="M32.5026 64.3624V47.9174C28.7298 45.9777 24.9534 44.0344 21.1805 42.0947C14.9671 44.0131 8.75713 45.928 2.54365 47.8464C2.54365 53.3635 2.54365 58.8807 2.54365 64.3979L0 66.2062L2.54365 75.2901C2.54365 78.9742 2.54365 82.6546 2.54365 86.3387C5.41059 90.2714 8.27398 94.2077 11.1374 98.1404H23.9267L32.4991 86.3387V75.2866L35.1067 65.9788L32.4991 64.3624H32.5026Z" fill="black"/>
<path fill-rule="evenodd" clip-rule="evenodd" d="M89.3903 120.475L93.0921 122.579V73.9223H89.1807L82.4131 53.6192L84.8466 51.5054L87.2766 28.3639L83.4646 30.531L81.461 51.4024H78.7113V33.2309L75.4322 35.0925V73.9258H74.0574L68.764 38.8795L64.1101 41.5227L59.7831 73.9258H58.5148V44.7022L54.2765 47.1109L49.9495 67.1581H49.6333L45.4057 52.1485L42.4429 53.8324V93.8061L46.3543 96.0265L49.104 93.8061V86.9319C49.104 86.1929 48.7878 85.557 48.1519 85.1343L47.3064 84.4983V84.2852L48.1519 83.6493C48.7878 83.2265 49.104 82.5906 49.104 81.8517V77.0912C49.104 75.0804 47.9423 73.9187 45.9315 73.9187H44.6632V57.6337L49.3171 73.9187H50.0561V98.1261L55.8717 101.43V97.6074H52.486V87.2445H55.2357V85.0241H52.486V76.1426H55.8717V73.9223H56.8238V101.974L59.3603 103.416V90.6301H59.9962C63.0621 90.6301 64.7567 88.8325 64.7567 84.7079V76.0361L62.7459 73.9223L63.9076 64.4049H69.5136L70.8884 73.9223H73.2154V90.1008H68.9843V73.9223H66.128V107.26L68.9843 108.883V93.0636H73.2154V111.285L76.2813 113.026V73.9223H78.7148V114.408L82.953 116.816L89.3974 83.969V120.475H89.3903ZM59.7795 88.2001H59.3567V76.3558H62.213V84.7115C62.213 87.3546 61.3675 88.2001 59.7795 88.2001ZM46.8801 77.4109V83.4397H44.6597V75.933H45.5052C46.4573 75.933 46.8801 76.4624 46.8801 77.4145V77.4109ZM46.8801 93.8026H44.6597V85.4469H46.8801V93.8026ZM89.0742 27.3372L98.286 22.1042H98.3784C102.819 22.1042 105.039 25.4898 105.039 29.5078V42.4108H100.599V29.721C100.599 27.5006 99.3305 26.2323 97.1101 26.2323H93.5149V66.4192C93.5149 69.1689 94.9963 70.3306 97.2167 70.3306C99.1209 70.3306 100.602 69.1689 100.602 66.4192V51.9318H105.043V65.6803C105.043 70.4407 103.245 73.1869 99.7568 74.036V96.5594H103.459L105.679 74.036L112.02 14.3098L118.578 10.5832L124.923 73.9258L132 144.683L126.295 141.443L124.398 118.976H117.314L115.63 135.382L107.889 130.984L99.7568 100.151V126.366L95.7388 124.081V74.242C91.2981 73.8193 89.0777 70.963 89.0777 65.6767V27.3407L89.0742 27.3372ZM119.744 73.9223L118.369 56.3689H112.024L110.333 74.0289L108.006 96.0265L103.988 99.8349L111.495 128.28L117.63 73.9258H119.744V73.9223ZM42.6489 46.1091H42.5423V44.9474H42.6489C43.1783 44.9474 43.7076 43.9953 43.7076 41.9845V40.9258H46.8801V46.1091H45.7184V41.8779H44.7663V42.0911C44.7663 44.418 44.0273 46.1091 42.6525 46.1091H42.6489ZM79.134 22.1042H79.7699C80.1927 22.1042 80.4058 22.4204 80.4058 22.7401C80.4058 23.1629 80.0897 23.376 79.7699 23.376H79.134V22.1078V22.1042ZM79.134 24.2216H79.873C80.2957 24.2216 80.6119 24.4347 80.6119 24.8575C80.6119 25.2802 80.2957 25.5964 79.873 25.5964H79.134V24.2216ZM79.9795 26.4419C80.9316 26.4419 81.6706 25.9126 81.6706 25.0671C81.6706 24.2216 81.0346 23.7988 80.5089 23.7988V23.6922C81.0382 23.6922 81.461 23.1629 81.461 22.5305C81.461 21.7916 80.9316 21.2622 79.9795 21.2622H78.0753V26.4455H79.9795V26.4419ZM97.3233 16.182V13.4323L98.9077 16.182H100.176L98.5915 13.4323L100.176 10.9988H98.9077L97.3233 13.4323V10.9988H96.2646V16.182H97.3233ZM62.3196 31.8348L62.8489 33.7389H61.7903L62.3196 31.8348ZM116.145 1.06222L116.674 2.96641H115.616L116.145 1.06222ZM50.6884 73.9223L55.8717 51.2923V73.9223H50.6884ZM60.0992 35.9593L61.5807 30.7761H63.0621L64.6466 35.9593H63.4849L63.0621 34.5845H61.5807L61.1579 35.9593H60.0992ZM64.3304 61.5486L66.3411 45.6863H66.7639L69.0908 61.5486H64.3304ZM78.7113 73.9223V53.7258L85.4789 73.9223H88.3352L82.0969 105.86V73.9223H78.7113ZM112.447 51.9282H118.053L116.042 25.9126H114.983L112.447 51.9282ZM113.925 5.18323H114.983L115.406 3.80838H116.887L117.31 5.18323H118.472L116.884 0H115.402L113.921 5.18323H113.925ZM117.733 114.212H123.971L121.644 86.1894H120.586L117.729 114.212H117.733Z" fill="white"/>
<path fill-rule="evenodd" clip-rule="evenodd" d="M3.66268 53.1432L6.14594 47.8996L3.66268 48.6669V53.1432ZM10.8744 82.7824C11.6631 83.9512 12.6436 84.8429 13.7165 85.4611C14.9173 86.1538 16.2353 86.5091 17.5178 86.5304C18.8038 86.5091 20.1183 86.1538 21.319 85.4611C22.399 84.8394 23.3831 83.9406 24.1753 82.7611H10.8744V82.7789V82.7824ZM24.1753 84.5694C24.1753 86.2356 24.1753 87.9017 24.1753 89.5679L21.6885 91.0493V87.7738L17.5178 89.6176L13.3612 87.8769V91.0529L10.8744 89.5714V84.5872C11.5636 85.3403 12.3381 85.9549 13.1623 86.431C14.5336 87.2232 16.0399 87.6246 17.5142 87.6495H17.5284C19.0028 87.6282 20.5091 87.2232 21.8804 86.431C22.7081 85.9514 23.4897 85.3332 24.1824 84.5729L24.1753 84.5694ZM10.8744 81.6456H13.3612V77.8301L10.8744 79.3435V81.6492V81.6456ZM14.4768 81.6456H16.9636V76.9136H14.8675L14.4768 77.1516V81.6492V81.6456ZM18.0826 81.6456H20.5695V77.3328L19.8234 76.9136H18.0826V81.6456ZM21.6885 81.6456H24.1753V79.3577L21.6885 77.9616V81.6492V81.6456ZM24.1753 90.8646L21.6885 92.346V97.0212H23.3618L24.1753 95.9022V90.861V90.8646ZM20.5695 89.4862L18.0826 90.5839V97.0212H20.5695V89.4862ZM16.9636 90.591L14.4768 89.5501V97.0212H16.9636V90.591ZM13.3612 92.346L10.8744 90.8646V95.8844L11.7057 97.0248H13.3648V92.3496L13.3612 92.346ZM21.6743 65.897L23.6211 63.9217C24.6549 64.1207 25.5786 64.3481 26.5662 64.7211C27.4544 65.055 28.3034 65.492 29.149 65.9325L30.9146 64.6891L27.4863 62.5647L20.7862 64.2415L21.6743 65.9005V65.897ZM28.1223 66.6501C27.1666 66.4618 26.1115 66.3872 25.0457 66.3695C24.2499 66.3553 23.4506 66.3695 22.6868 66.4441L24.0084 65.1403C24.6301 65.2824 25.3832 65.4671 26.1719 65.7655C26.8469 66.0178 27.4792 66.3197 28.1187 66.6537L28.1223 66.6501ZM5.92213 65.9148C6.68238 65.5275 7.43553 65.1616 8.25973 64.8454C9.41077 64.4049 10.5085 64.142 11.72 63.9466L14.1535 66.0391V64.277L6.97369 62.6108L4.07123 64.6749L5.91857 65.9148H5.92213ZM13.1303 66.6288C12.331 66.5151 11.5068 66.4405 10.679 66.4086C9.48893 66.3624 8.28815 66.4086 7.1229 66.5649C7.62026 66.3233 8.12473 66.0959 8.65762 65.8934C9.47116 65.5808 10.3558 65.3215 11.3896 65.1367L13.1303 66.6324V66.6288ZM32.5026 71.1513L33.81 66.4832L32.5026 65.6732V71.1548V71.1513ZM2.54717 65.762L1.28955 66.6572L2.54717 71.1548V65.7655V65.762ZM28.0121 53.1432L30.4066 48.0914L28.1365 46.9226L25.1914 53.1432H28.0157H28.0121ZM31.3871 48.6207L29.2484 53.1396H31.3871V48.6207ZM23.9515 53.1432L27.1382 46.411L24.8681 45.2422L21.1272 53.1432H23.9515ZM19.8945 53.1432L23.8769 44.7342L21.6068 43.5654L17.0702 53.1432H19.8945ZM15.8374 53.1432L20.406 43.5015L17.0986 44.5211L13.0166 53.1432H15.841H15.8374ZM11.7803 53.1432L15.6527 44.9651L12.3381 45.9883H12.3417L8.95604 53.1432H11.7803ZM7.71974 53.1432H4.89543L7.58829 47.4555L10.8958 46.4359L7.71974 53.1467V53.1432ZM25.2944 79.3649V94.3639L27.7812 90.9392V78.0468L25.2944 79.3649ZM28.8967 77.4571V89.4045L31.3835 85.9798V76.1427L28.8967 77.4607V77.4571ZM9.75537 94.3461V79.3613L7.26856 78.0433V90.9285L9.75537 94.3426V94.3461ZM6.14949 89.3974V77.4571L3.66268 76.1391V85.9798L6.14949 89.3938V89.3974ZM21.4185 67.7585C22.6335 67.5347 23.7917 67.4637 25.028 67.485C26.1932 67.5063 27.2377 67.6058 28.3709 67.8474L31.3835 65.7229V74.8815L24.7402 78.3985L20.1112 75.798H15.2725V63.396L6.73922 61.4136L3.65913 63.602V54.2623H31.3835V63.6731L27.6604 61.3674L19.827 63.3391L19.4788 64.1598L21.4185 67.7656V67.7585ZM14.157 76.0432L10.2954 78.3914L3.66268 74.8815V65.7442L6.66817 67.7621L6.88488 67.7266C8.10342 67.5312 9.3788 67.4743 10.64 67.5205C11.8372 67.5667 13.0273 67.7124 14.157 67.9362V76.0432Z" fill="white"/>
</svg>
