<svg width="121" height="40" viewBox="0 0 121 40" fill="none" xmlns="http://www.w3.org/2000/svg">
<path fill-rule="evenodd" clip-rule="evenodd" d="M4.56306 4.56595C7.28559 1.81502 11.3523 0 16.7335 0H104.011C109.475 0 113.605 1.81431 116.371 4.56453C119.133 7.3112 120.512 10.9725 120.512 14.6295C120.512 18.2865 119.133 21.9471 116.371 24.6945C113.605 27.4447 109.475 29.2583 104.011 29.2583H16.7328C11.3523 29.2583 7.28559 27.4433 4.56306 24.6923C1.84409 21.9443 0.487793 18.2844 0.487793 14.6295C0.487793 10.9746 1.84338 7.31404 4.56306 4.56595Z" fill="#1A1C1E"/>
<path d="M18.9702 8.01707C20.4614 8.01707 21.6331 9.11772 21.6331 11.1245V20.6065H20.1951V16.0959H14.3716L11.8678 20.6065H10.2168L16.0766 10.0231C16.8044 8.70942 17.7801 8.01707 18.9702 8.01707ZM15.1357 14.7112H20.1958V11.177C20.1958 10.0054 19.6455 9.43727 18.9354 9.43727C18.2963 9.43727 17.8518 9.82783 17.3902 10.6622L15.1357 14.7112ZM26.8978 9.40176C25.4598 9.40176 24.3237 10.5209 24.3237 12.0654C24.3237 13.5743 25.4598 14.6927 26.8978 14.6927C28.3357 14.6927 29.4726 13.5743 29.4726 12.0654C29.4726 10.5209 28.3364 9.40176 26.8978 9.40176ZM22.8857 20.6072V12.2422C22.8857 9.77386 24.5722 8.01636 26.9155 8.01636C29.2063 8.01636 30.9468 9.73835 30.9468 12.0291C30.9468 14.0359 29.5081 15.5981 27.6263 15.9354L33.5216 20.6057H31.3373L24.3237 15.1188V20.6057L22.8857 20.6072ZM31.059 8.17755H39.6888V9.56225H36.1028V20.6072H34.6642V9.56154H31.059V8.17755ZM45.6217 19.2218V20.6065H41.0217C38.7664 20.6065 37.7368 19.3105 37.7368 17.9081C37.7368 16.8784 38.1628 16.1499 38.8374 14.9959L42.8154 8.17755H44.4664L40.0986 15.706C39.5482 16.6469 39.1925 17.1447 39.1925 17.7838C39.1925 18.5117 39.708 19.2218 41.1992 19.2218H45.6217Z" fill="#F4F4F4"/>
<path d="M51.6077 20.7896C47.7547 20.7896 44.665 18.2503 44.665 14.4328C44.665 10.8631 47.4699 8.02271 51.0219 8.02271C54.4659 8.02271 56.9704 10.6146 56.9704 14.0245V14.7168H46.1385C46.2983 17.8952 48.9796 19.3687 51.6077 19.3687C53.5789 19.3687 55.5317 18.4278 56.6153 17.0069V18.6586C55.5317 20.0433 53.7565 20.7896 51.6077 20.7896ZM46.245 13.3485H55.4607C55.1767 11.0577 53.4724 9.4422 51.0219 9.4422C48.6423 9.4422 46.7243 11.1109 46.245 13.3485ZM61.5058 20.6071H57.8296V8.17751H60.795C63.0673 8.17751 64.4705 9.59771 64.4705 11.3382C64.4753 11.7932 64.3695 12.2426 64.1623 12.6478C63.9552 13.053 63.6528 13.4019 63.2811 13.6645C64.7368 14.1615 65.7132 15.3687 65.7132 16.9494C65.7132 19.0626 63.9741 20.6071 61.5058 20.6071ZM59.2683 19.2224H61.4518C63.139 19.2224 64.2212 18.2815 64.2212 16.9501C64.2212 15.6187 63.1383 14.7119 61.6294 14.7119H59.2676L59.2683 19.2224ZM59.2683 13.3272H60.8305C62.1264 13.3272 62.9963 12.546 62.9963 11.4269C62.9963 10.2908 62.1264 9.56291 60.653 9.56291H59.2683V13.3272ZM69.5136 17.7312V19.1692H68.0749V17.7305L69.5136 17.7312ZM66.637 17.7312V11.0541H68.0749V13.3265H76.7936V11.0541H78.2315V14.7651H68.0749V17.7305L66.637 17.7312ZM68.0749 11.0541V9.61617H69.5129V11.0541H68.0749ZM69.5129 20.6071L69.5136 19.1692H76.7936V20.6071H69.5129ZM69.5129 9.61617V8.17751H75.3549V9.61617H69.5129ZM75.3549 11.0541V9.61617H76.7936V11.0541H75.3549ZM76.7936 19.1692V17.7305H78.2315V19.1692H76.7936ZM82.4318 20.6071H79.4131V8.17751H82.4318C86.1428 8.17751 88.8774 10.7878 88.8774 14.3923C88.8774 17.9968 86.1428 20.6071 82.4318 20.6071ZM80.8518 19.2224H82.4318C85.3616 19.2224 87.3861 17.1986 87.3861 14.3923C87.3861 11.5874 85.3616 9.56291 82.4318 9.56291H80.8518V19.2224ZM97.1017 11.0058C97.1017 10.781 97.0248 10.5443 96.871 10.2957C96.7171 10.0467 96.4863 9.83938 96.1786 9.67369C95.8827 9.49616 95.5218 9.4074 95.0957 9.4074C94.4206 9.4074 93.876 9.60268 93.4618 9.99324C93.0476 10.372 92.8404 10.8515 92.8404 11.4319C92.8404 11.9881 93.0298 12.4438 93.4085 12.7988C93.7872 13.1539 94.2609 13.3314 94.8294 13.3314H95.575V14.7161H93.2132C92.5505 14.7161 91.994 14.9235 91.5438 15.3382C91.1059 15.7406 90.8869 16.2554 90.8869 16.8826C90.8869 17.3087 91.0053 17.7172 91.242 18.1083C91.4905 18.4988 91.8281 18.8125 92.2546 19.0492C92.6925 19.2859 93.1718 19.4042 93.6926 19.4042C94.2015 19.4042 94.6633 19.3036 95.078 19.1024C95.4922 18.8894 95.8117 18.6231 96.0366 18.3035C96.2733 17.984 96.3916 17.6704 96.3916 17.3627H97.9013C97.9013 17.8479 97.7472 18.3568 97.439 18.8894C97.1436 19.422 96.6762 19.8717 96.0366 20.2386C95.3975 20.6059 94.5925 20.7896 93.6215 20.7896C92.7694 20.7896 92.0236 20.6121 91.384 20.257C90.7449 19.9015 90.2538 19.4338 89.9106 18.8539C89.5812 18.2817 89.4096 17.6323 89.4135 16.9721C89.4135 16.1072 89.6916 15.3673 90.2479 14.7523C90.8041 14.1369 91.544 13.7582 92.4676 13.6162C92.1126 13.344 91.8404 13.0123 91.651 12.6213C91.4603 12.2224 91.3629 11.7853 91.3663 11.3431C91.3663 10.7514 91.5144 10.207 91.8108 9.70991C92.1185 9.20005 92.5505 8.79151 93.1067 8.48427C93.663 8.17656 94.3082 8.02271 95.0425 8.02271C95.7526 8.02271 96.368 8.16473 96.8887 8.44877C97.4213 8.73281 97.8239 9.10561 98.0966 9.56718C98.3638 9.99946 98.5052 10.4977 98.5049 11.0058H97.1017ZM101.706 20.7669C100.321 20.7669 99.2377 19.7905 99.2377 17.908V8.17822H100.676V17.9087C100.676 18.9206 101.156 19.3467 101.742 19.3467C102.256 19.3467 102.718 18.9916 103.233 17.9975L108.276 8.17751H109.928L104.458 18.8141C103.731 20.2343 102.753 20.7669 101.706 20.7669Z" fill="#F4F4F4"/>
<path d="M16.5504 35.6293C16.5504 35.0306 16.0874 34.5762 15.405 34.5762C14.6892 34.5762 14.251 34.9809 14.1161 35.5867H13.3755C13.5104 34.5847 14.2766 33.8853 15.422 33.8853C16.5844 33.8853 17.3166 34.6685 17.3166 35.6293C17.3166 36.5304 16.7442 37.0857 16.1378 37.6417L14.4279 39.2167H17.46V39.9076H13.3918V39.2586L15.6322 37.1617C16.1967 36.6312 16.5504 36.2605 16.5504 35.6293ZM20.7137 33.8853C22.1374 33.8853 22.954 35.1656 22.954 36.9429C22.954 38.7196 22.1374 39.9999 20.7137 39.9999C19.2899 39.9999 18.474 38.7196 18.474 36.9429C18.474 35.1656 19.2906 33.8853 20.7137 33.8853ZM19.2402 36.9429C19.2402 38.2737 19.7451 39.3097 20.7137 39.3097C21.6823 39.3097 22.1878 38.273 22.1878 36.9429C22.1878 35.6129 21.6823 34.5762 20.7137 34.5762C19.7451 34.5762 19.2402 35.6122 19.2402 36.9429ZM27.1848 35.6293C27.1848 35.0306 26.7218 34.5762 26.0394 34.5762C25.3237 34.5762 24.8855 34.9809 24.7513 35.5867H24.01C24.1449 34.5847 24.9111 33.8853 26.0565 33.8853C27.2189 33.8853 27.9517 34.6685 27.9517 35.6293C27.9517 36.5304 27.3787 37.0857 26.773 37.6417L25.0623 39.2167H28.0945V39.9076H24.027V39.2586L26.2667 37.1617C26.8312 36.6312 27.1848 36.2605 27.1848 35.6293ZM32.6072 39.9076H31.858V38.518H28.8592V37.9115L31.7146 33.9776H32.6072V37.8526H33.4749V38.518H32.6072V39.9076ZM29.7014 37.8526H31.858V34.8709L29.7014 37.8526Z" fill="#1A1C1E"/>
</svg>
