<svg width="137" height="228" viewBox="0 0 137 228" fill="none" xmlns="http://www.w3.org/2000/svg">
<g filter="url(#filter0_d_178_6559)">
<path d="M121 68.5C121 39.4869 97.482 16 68.5 16C39.5182 16 16 39.5182 16 68.5C16 68.531 16 68.563 16 68.594V202.91C16 207.777 19.9249 211.702 24.7919 211.702C26.456 211.702 27.9946 211.231 29.3448 210.446C29.4704 210.383 29.596 210.289 29.7216 210.195L63.5703 188.623C64.9833 187.681 66.6788 187.116 68.5 187.116C70.164 187.116 71.734 187.587 73.053 188.372L107.278 210.163C107.404 210.258 107.53 210.352 107.655 210.415C108.974 211.231 110.544 211.671 112.208 211.671C117.075 211.671 121 207.746 121 202.879V68.563C121 68.563 121 68.531 121 68.5Z" fill="white"/>
<path d="M111.727 68.627C111.727 92.396 92.448 111.676 68.6786 111.676C44.9092 111.676 25.6299 92.396 25.6299 68.627C25.6299 44.8574 44.9092 25.5781 68.6786 25.5781C92.448 25.5781 111.727 44.8574 111.727 68.627Z" fill="#EB4F27"/>
<path d="M68.8044 25.7344C45.0459 25.7344 25.7871 44.9932 25.7871 68.752C25.7871 80.627 30.5986 91.379 38.3804 99.163C46.1644 106.951 64.5027 118.222 65.5781 130.051C65.7394 131.825 67.0235 133.278 68.8044 133.278C70.5852 133.278 71.8692 131.825 72.0312 130.051C73.1062 118.222 91.4442 106.951 99.2282 99.163C107.01 91.379 111.822 80.627 111.822 68.752C111.822 44.9932 92.5632 25.7344 68.8044 25.7344Z" fill="#EB4F27"/>
<path d="M75.0218 49.6928H70.6878C63.2151 49.6928 59.4786 53.429 59.4786 59.018C59.4786 65.236 61.9592 68.344 67.5797 72.081L71.9438 75.189L59.4786 94.5H49.5249L61.3626 77.073C54.5175 72.081 50.7809 67.747 50.7809 59.646C50.7809 49.6928 57.626 42.8477 70.6878 42.8477H83.7508V94.5H75.0528V49.6928H75.0218Z" fill="white"/>
<path d="M35.2743 149.615L39.6828 156.586H36.5177L33.3715 151.612L30.1687 156.586H27.437L31.9396 149.672L27.7195 143.097H30.9223L33.8425 147.731L36.838 143.097H39.5509L35.2743 149.615ZM44.7169 154.419C45.0435 154.419 45.3512 154.363 45.6401 154.25C45.9415 154.124 46.2053 153.942 46.4314 153.703C46.6574 153.465 46.8396 153.182 46.9777 152.856C47.1159 152.517 47.1849 152.127 47.1849 151.688C47.1849 151.261 47.1159 150.878 46.9777 150.538C46.8396 150.199 46.6574 149.917 46.4314 149.691C46.2053 149.465 45.9415 149.295 45.6401 149.182C45.3512 149.056 45.0435 148.994 44.7169 148.994C44.3904 148.994 44.0764 149.056 43.775 149.182C43.4861 149.295 43.2286 149.465 43.0025 149.691C42.7765 149.917 42.5943 150.199 42.4562 150.538C42.318 150.878 42.2489 151.261 42.2489 151.688C42.2489 152.127 42.318 152.517 42.4562 152.856C42.5943 153.182 42.7765 153.465 43.0025 153.703C43.2286 153.942 43.4861 154.124 43.775 154.25C44.0764 154.363 44.3904 154.419 44.7169 154.419ZM44.7169 156.774C44.0136 156.774 43.3479 156.661 42.7199 156.435C42.1045 156.197 41.5582 155.857 41.0809 155.418C40.6162 154.978 40.2457 154.444 39.9693 153.816C39.7056 153.189 39.5737 152.479 39.5737 151.688C39.5737 150.909 39.7056 150.212 39.9693 149.596C40.2457 148.968 40.6162 148.435 41.0809 147.995C41.5582 147.555 42.1045 147.223 42.7199 146.997C43.3479 146.758 44.0136 146.639 44.7169 146.639C45.4203 146.639 46.0797 146.758 46.6951 146.997C47.3231 147.223 47.8695 147.555 48.3342 147.995C48.8114 148.435 49.1882 148.968 49.4646 149.596C49.7409 150.212 49.879 150.909 49.879 151.688C49.879 152.479 49.7409 153.189 49.4646 153.816C49.2008 154.444 48.8303 154.978 48.353 155.418C47.8883 155.857 47.3419 156.197 46.714 156.435C46.086 156.661 45.4203 156.774 44.7169 156.774ZM53.7378 146.827L53.7943 148.127C54.1711 147.65 54.6358 147.285 55.1884 147.034C55.7536 146.77 56.3753 146.639 57.0536 146.639C57.6439 146.639 58.2091 146.745 58.7491 146.959C59.2892 147.16 59.7665 147.468 60.181 147.882C60.5954 148.296 60.922 148.811 61.1606 149.427C61.4118 150.042 61.5374 150.752 61.5374 151.556C61.5374 152.41 61.3993 153.163 61.123 153.816C60.8592 154.457 60.5075 154.997 60.0679 155.437C59.6283 155.876 59.1259 156.209 58.5607 156.435C58.0081 156.661 57.4492 156.774 56.884 156.774C56.256 156.774 55.6908 156.674 55.1884 156.473C54.686 156.272 54.2465 155.989 53.8697 155.625V159.921H51.2509V146.827H53.7378ZM58.881 151.706C58.881 151.267 58.8119 150.871 58.6738 150.52C58.5356 150.168 58.3535 149.873 58.1274 149.634C57.9014 149.395 57.6376 149.213 57.3362 149.088C57.0347 148.962 56.7145 148.899 56.3753 148.899C56.0488 148.899 55.7285 148.962 55.4145 149.088C55.1131 149.213 54.843 149.402 54.6044 149.653C54.3658 149.892 54.1774 150.187 54.0392 150.538C53.9011 150.878 53.832 151.273 53.832 151.725C53.832 152.177 53.9011 152.579 54.0392 152.931C54.1774 153.283 54.3658 153.578 54.6044 153.816C54.843 154.043 55.1131 154.218 55.4145 154.344C55.716 154.47 56.0362 154.532 56.3753 154.532C56.7145 154.532 57.0347 154.47 57.3362 154.344C57.6376 154.218 57.9014 154.036 58.1274 153.798C58.3535 153.546 58.5356 153.251 58.6738 152.912C58.8119 152.561 58.881 152.159 58.881 151.706ZM67.5123 154.419C67.8388 154.419 68.1465 154.363 68.4354 154.25C68.7368 154.124 69.0006 153.942 69.2267 153.703C69.4528 153.465 69.6349 153.182 69.773 152.856C69.9112 152.517 69.9803 152.127 69.9803 151.688C69.9803 151.261 69.9112 150.878 69.773 150.538C69.6349 150.199 69.4528 149.917 69.2267 149.691C69.0006 149.465 68.7368 149.295 68.4354 149.182C68.1465 149.056 67.8388 148.994 67.5123 148.994C67.1857 148.994 66.8717 149.056 66.5703 149.182C66.2814 149.295 66.0239 149.465 65.7979 149.691C65.5718 149.917 65.3897 150.199 65.2515 150.538C65.1133 150.878 65.0443 151.261 65.0443 151.688C65.0443 152.127 65.1133 152.517 65.2515 152.856C65.3897 153.182 65.5718 153.465 65.7979 153.703C66.0239 153.942 66.2814 154.124 66.5703 154.25C66.8717 154.363 67.1857 154.419 67.5123 154.419ZM67.5123 156.774C66.8089 156.774 66.1432 156.661 65.5153 156.435C64.8998 156.197 64.3535 155.857 63.8762 155.418C63.4115 154.978 63.041 154.444 62.7647 153.816C62.5009 153.189 62.369 152.479 62.369 151.688C62.369 150.909 62.5009 150.212 62.7647 149.596C63.041 148.968 63.4115 148.435 63.8762 147.995C64.3535 147.555 64.8998 147.223 65.5153 146.997C66.1432 146.758 66.8089 146.639 67.5123 146.639C68.2156 146.639 68.875 146.758 69.4904 146.997C70.1181 147.223 70.6651 147.555 71.1291 147.995C71.6071 148.435 71.9831 148.968 72.2601 149.596C72.5361 150.212 72.6741 150.909 72.6741 151.688C72.6741 152.479 72.5361 153.189 72.2601 153.816C71.9961 154.444 71.6261 154.978 71.1481 155.418C70.6841 155.857 70.1371 156.197 69.5093 156.435C68.8813 156.661 68.2156 156.774 67.5123 156.774ZM74.0461 146.827H76.6651V154.382H79.8301V146.827H82.4491V154.382H85.5951V146.827H88.2141V156.586H74.0461V146.827ZM94.8741 156.774C94.0451 156.774 93.3041 156.655 92.6511 156.416C91.9981 156.165 91.4451 155.82 90.9931 155.38C90.5411 154.941 90.1891 154.413 89.9381 153.798C89.6991 153.17 89.5801 152.485 89.5801 151.744C89.5801 150.953 89.7121 150.243 89.9751 149.615C90.2521 148.987 90.6161 148.453 91.0681 148.014C91.5331 147.574 92.0671 147.235 92.6701 146.997C93.2851 146.758 93.9321 146.639 94.6101 146.639C95.3011 146.639 95.9351 146.77 96.5131 147.034C97.1031 147.285 97.5931 147.656 97.9821 148.146C98.3841 148.636 98.6731 149.245 98.8491 149.973C99.0371 150.689 99.0811 151.512 98.9811 152.441H92.3301C92.4941 153.082 92.8271 153.609 93.3291 154.024C93.8441 154.426 94.5531 154.627 95.4581 154.627C96.0101 154.627 96.5691 154.551 97.1351 154.401C97.7001 154.237 98.1771 154.011 98.5661 153.722V155.795C98.1641 156.084 97.6371 156.322 96.9841 156.511C96.3311 156.686 95.6271 156.774 94.8741 156.774ZM94.5161 148.654C93.9511 148.654 93.4731 148.837 93.0841 149.201C92.6951 149.552 92.4311 150.03 92.2931 150.633H96.4751C96.4371 150.067 96.2491 149.596 95.9101 149.22C95.5711 148.843 95.1061 148.654 94.5161 148.654ZM105.14 156.774C104.311 156.774 103.57 156.655 102.917 156.416C102.264 156.165 101.711 155.82 101.259 155.38C100.807 154.941 100.455 154.413 100.204 153.798C99.9651 153.17 99.8461 152.485 99.8461 151.744C99.8461 150.953 99.9781 150.243 100.242 149.615C100.518 148.987 100.882 148.453 101.334 148.014C101.799 147.574 102.333 147.235 102.936 146.997C103.551 146.758 104.198 146.639 104.876 146.639C105.567 146.639 106.201 146.77 106.779 147.034C107.369 147.285 107.859 147.656 108.248 148.146C108.65 148.636 108.939 149.245 109.115 149.973C109.304 150.689 109.347 151.512 109.247 152.441H102.597C102.76 153.082 103.093 153.609 103.595 154.024C104.11 154.426 104.82 154.627 105.724 154.627C106.277 154.627 106.836 154.551 107.401 154.401C107.966 154.237 108.443 154.011 108.833 153.722V155.795C108.431 156.084 107.903 156.322 107.25 156.511C106.597 156.686 105.894 156.774 105.14 156.774ZM104.782 148.654C104.217 148.654 103.74 148.837 103.35 149.201C102.961 149.552 102.697 150.03 102.559 150.633H106.741C106.704 150.067 106.515 149.596 106.176 149.22C105.837 148.843 105.372 148.654 104.782 148.654ZM46.277 162.827L48.9146 168.404L51.6652 162.827H54.8491L54.8679 172.586H52.2492V166.199L49.574 171.832H47.803L45.2785 166.143V172.586H43.0178V162.827H46.277ZM61.5456 172.774C60.7166 172.774 59.9756 172.655 59.3225 172.416C58.6694 172.165 58.1168 171.82 57.6646 171.38C57.2125 170.941 56.8608 170.413 56.6096 169.798C56.3709 169.17 56.2516 168.485 56.2516 167.744C56.2516 166.953 56.3835 166.243 56.6473 165.615C56.9236 164.987 57.2878 164.453 57.74 164.014C58.2047 163.574 58.7385 163.235 59.3413 162.997C59.9568 162.758 60.6036 162.639 61.2818 162.639C61.9726 162.639 62.6069 162.77 63.1846 163.034C63.775 163.285 64.2648 163.656 64.6541 164.146C65.0561 164.636 65.3449 165.245 65.5208 165.973C65.7092 166.689 65.7531 167.512 65.6526 168.441H59.0022C59.1655 169.082 59.4983 169.609 60.0007 170.024C60.5157 170.426 61.2253 170.627 62.1296 170.627C62.6823 170.627 63.2412 170.551 63.8064 170.401C64.3715 170.237 64.8488 170.011 65.2382 169.722V171.795C64.8363 172.084 64.3087 172.322 63.6556 172.511C63.0025 172.686 62.2992 172.774 61.5456 172.774ZM61.1876 164.654C60.6224 164.654 60.1452 164.837 59.7558 165.201C59.3665 165.552 59.1027 166.03 58.9646 166.633H63.147C63.1093 166.067 62.9209 165.596 62.5818 165.22C62.2427 164.843 61.7779 164.654 61.1876 164.654ZM71.7361 172.774C70.9581 172.774 70.2481 172.655 69.6075 172.416C68.967 172.178 68.4143 171.845 67.9496 171.418C67.4975 170.978 67.1458 170.451 66.8946 169.835C66.6434 169.207 66.5178 168.504 66.5178 167.725C66.5178 166.959 66.6434 166.262 66.8946 165.634C67.1584 165.006 67.5226 164.472 67.9873 164.033C68.4646 163.593 69.0298 163.254 69.6829 163.015C70.3361 162.764 71.0641 162.639 71.8681 162.639C72.4331 162.639 72.9421 162.695 73.3941 162.808C73.8591 162.921 74.2551 163.066 74.5811 163.241V165.615C74.2551 165.364 73.8781 165.176 73.4511 165.05C73.0241 164.912 72.5901 164.843 72.1511 164.843C71.2721 164.843 70.5561 165.1 70.0031 165.615C69.4631 166.13 69.193 166.808 69.193 167.65C69.193 168.09 69.2621 168.491 69.4003 168.856C69.551 169.207 69.7582 169.509 70.0221 169.76C70.2861 170.011 70.5931 170.212 70.9451 170.363C71.3091 170.501 71.7051 170.57 72.1321 170.57C72.5591 170.57 72.9861 170.507 73.4131 170.382C73.8401 170.256 74.2361 170.061 74.6001 169.798V172.04C74.2991 172.266 73.8971 172.448 73.3941 172.586C72.8921 172.712 72.3391 172.774 71.7361 172.774ZM84.1531 162.827V165.031H81.1951V172.586H78.5761V165.031H75.6751V162.827H84.1531ZM89.6181 170.419C89.9441 170.419 90.2521 170.363 90.5411 170.25C90.8421 170.124 91.1061 169.942 91.3321 169.703C91.5581 169.465 91.7401 169.182 91.8781 168.856C92.0161 168.517 92.0861 168.127 92.0861 167.688C92.0861 167.261 92.0161 166.878 91.8781 166.538C91.7401 166.199 91.5581 165.917 91.3321 165.691C91.1061 165.465 90.8421 165.295 90.5411 165.182C90.2521 165.056 89.9441 164.994 89.6181 164.994C89.2911 164.994 88.9771 165.056 88.6761 165.182C88.3871 165.295 88.1291 165.465 87.9031 165.691C87.6771 165.917 87.4951 166.199 87.3571 166.538C87.2191 166.878 87.1501 167.261 87.1501 167.688C87.1501 168.127 87.2191 168.517 87.3571 168.856C87.4951 169.182 87.6771 169.465 87.9031 169.703C88.1291 169.942 88.3871 170.124 88.6761 170.25C88.9771 170.363 89.2911 170.419 89.6181 170.419ZM89.6181 172.774C88.9141 172.774 88.2491 172.661 87.6211 172.435C87.0051 172.197 86.4591 171.857 85.9811 171.418C85.5171 170.978 85.1461 170.444 84.8701 169.816C84.6061 169.189 84.4741 168.479 84.4741 167.688C84.4741 166.909 84.6061 166.212 84.8701 165.596C85.1461 164.968 85.5171 164.435 85.9811 163.995C86.4591 163.555 87.0051 163.223 87.6211 162.997C88.2491 162.758 88.9141 162.639 89.6181 162.639C90.3211 162.639 90.9801 162.758 91.5961 162.997C92.2241 163.223 92.7701 163.555 93.2351 163.995C93.7121 164.435 94.0891 164.968 94.3651 165.596C94.6411 166.212 94.7801 166.909 94.7801 167.688C94.7801 168.479 94.6411 169.189 94.3651 169.816C94.1011 170.444 93.7311 170.978 93.2541 171.418C92.7891 171.857 92.2431 172.197 91.6151 172.435C90.9871 172.661 90.3211 172.774 89.6181 172.774Z" fill="black"/>
</g>
<defs>
<filter id="filter0_d_178_6559" x="0.15004" y="0.15004" width="136.7" height="227.402" filterUnits="userSpaceOnUse" color-interpolation-filters="sRGB">
<feFlood flood-opacity="0" result="BackgroundImageFix"/>
<feColorMatrix in="SourceAlpha" type="matrix" values="0 0 0 0 0 0 0 0 0 0 0 0 0 0 0 0 0 0 127 0" result="hardAlpha"/>
<feOffset/>
<feGaussianBlur stdDeviation="7.92498"/>
<feColorMatrix type="matrix" values="0 0 0 0 0 0 0 0 0 0 0 0 0 0 0 0 0 0 0.12 0"/>
<feBlend mode="normal" in2="BackgroundImageFix" result="effect1_dropShadow_178_6559"/>
<feBlend mode="normal" in="SourceGraphic" in2="effect1_dropShadow_178_6559" result="shape"/>
</filter>
</defs>
</svg>
