<svg width="88" height="152" viewBox="0 0 88 152" fill="none" xmlns="http://www.w3.org/2000/svg">
<g filter="url(#filter0_d_427_56837)">
<path d="M80 48C80 30.3158 65.6652 16 48 16C30.3349 16 16 30.3349 16 48C16 48.0189 16 48.0384 16 48.0573V129.926C16 132.893 18.3923 135.285 21.3589 135.285C22.3732 135.285 23.311 134.998 24.134 134.519C24.2105 134.481 24.2871 134.424 24.3636 134.366L44.9952 121.218C45.8565 120.644 46.8899 120.299 48 120.299C49.0142 120.299 49.9712 120.586 50.7752 121.065L71.6361 134.347C71.7129 134.405 71.7897 134.462 71.8659 134.501C72.6699 134.998 73.6268 135.266 74.6411 135.266C77.6076 135.266 80 132.874 80 129.907V48.0384C80 48.0384 80 48.0189 80 48Z" fill="white"/>
<path d="M74.3479 48.0775C74.3479 62.5652 62.5968 74.3168 48.1088 74.3168C33.6208 74.3168 21.8696 62.5652 21.8696 48.0775C21.8696 33.5893 33.6208 21.8381 48.1088 21.8381C62.5968 21.8381 74.3479 33.5893 74.3479 48.0775Z" fill="#EB4F27"/>
<path d="M48.1854 21.9332C33.704 21.9332 21.9653 33.6719 21.9653 48.1535C21.9653 55.3916 24.8981 61.9452 29.6413 66.6897C34.3858 71.4367 45.5634 78.3066 46.2189 85.5167C46.3172 86.598 47.0999 87.4836 48.1854 87.4836C49.2708 87.4836 50.0535 86.598 50.1522 85.5167C50.8075 78.3066 61.9849 71.4367 66.7294 66.6897C71.4727 61.9452 74.4058 55.3916 74.4058 48.1535C74.4058 33.6719 62.667 21.9332 48.1854 21.9332Z" fill="#EB4F27"/>
<path d="M51.9752 36.5366H49.3335C44.7787 36.5366 42.5012 38.8139 42.5012 42.2206C42.5012 46.0106 44.0132 47.905 47.439 50.1828L50.0991 52.0772L42.5012 63.8477H36.4342L43.6496 53.2255C39.4773 50.1828 37.1998 47.5411 37.1998 42.6033C37.1998 36.5366 41.372 32.3644 49.3335 32.3644H57.2957V63.8477H51.9941V36.5366H51.9752Z" fill="white"/>
<path d="M27.7483 97.4414L30.4354 101.69H28.5062L26.5885 98.6586L24.6363 101.69H22.9713L25.7158 97.4761L23.1435 93.4685H25.0957L26.8756 96.293L28.7014 93.4685H30.355L27.7483 97.4414ZM33.5038 100.37C33.7029 100.37 33.8904 100.335 34.0665 100.267C34.2502 100.19 34.411 100.079 34.5488 99.9331C34.6866 99.7881 34.7977 99.6156 34.8818 99.4169C34.9661 99.2102 35.0081 98.9725 35.0081 98.7049C35.0081 98.4447 34.9661 98.2112 34.8818 98.004C34.7977 97.7973 34.6866 97.6255 34.5488 97.4877C34.411 97.3499 34.2502 97.2463 34.0665 97.1775C33.8904 97.1007 33.7029 97.0629 33.5038 97.0629C33.3048 97.0629 33.1134 97.1007 32.9297 97.1775C32.7536 97.2463 32.5967 97.3499 32.4589 97.4877C32.3211 97.6255 32.21 97.7973 32.1259 98.004C32.0416 98.2112 31.9995 98.4447 31.9995 98.7049C31.9995 98.9725 32.0416 99.2102 32.1259 99.4169C32.21 99.6156 32.3211 99.7881 32.4589 99.9331C32.5967 100.079 32.7536 100.19 32.9297 100.267C33.1134 100.335 33.3048 100.37 33.5038 100.37ZM33.5038 101.805C33.0751 101.805 32.6694 101.736 32.2866 101.598C31.9115 101.453 31.5785 101.246 31.2876 100.978C31.0044 100.71 30.7785 100.385 30.61 100.002C30.4493 99.6198 30.3689 99.1871 30.3689 98.7049C30.3689 98.2301 30.4493 97.8053 30.61 97.4298C30.7785 97.047 31.0044 96.7221 31.2876 96.454C31.5785 96.1858 31.9115 95.9834 32.2866 95.8456C32.6694 95.7 33.0751 95.6274 33.5038 95.6274C33.9326 95.6274 34.3345 95.7 34.7096 95.8456C35.0924 95.9834 35.4254 96.1858 35.7087 96.454C35.9995 96.7221 36.2292 97.047 36.3977 97.4298C36.5661 97.8053 36.6502 98.2301 36.6502 98.7049C36.6502 99.1871 36.5661 99.6198 36.3977 100.002C36.2369 100.385 36.011 100.71 35.7201 100.978C35.4369 101.246 35.1038 101.453 34.7211 101.598C34.3383 101.736 33.9326 101.805 33.5038 101.805ZM39.0023 95.742L39.0367 96.5344C39.2664 96.2437 39.5496 96.0212 39.8865 95.8682C40.231 95.7073 40.6099 95.6274 41.0233 95.6274C41.3831 95.6274 41.7276 95.692 42.0568 95.8225C42.386 95.945 42.6769 96.1327 42.9296 96.3851C43.1821 96.6374 43.3812 96.9513 43.5266 97.3268C43.6798 97.7016 43.7563 98.1344 43.7563 98.6245C43.7563 99.145 43.6721 99.604 43.5037 100.002C43.3429 100.393 43.1286 100.722 42.8606 100.99C42.5927 101.258 42.2865 101.461 41.9419 101.598C41.6051 101.736 41.2645 101.805 40.92 101.805C40.5372 101.805 40.1927 101.744 39.8865 101.622C39.5802 101.499 39.3123 101.326 39.0827 101.105V103.723H37.4865V95.742H39.0023ZM42.1372 98.7159C42.1372 98.4483 42.0951 98.2069 42.0109 97.993C41.9266 97.7785 41.8157 97.5986 41.6778 97.453C41.5401 97.3073 41.3793 97.1964 41.1956 97.1202C41.0118 97.0434 40.8166 97.005 40.6099 97.005C40.4109 97.005 40.2157 97.0434 40.0243 97.1202C39.8406 97.1964 39.6759 97.3116 39.5305 97.4645C39.3851 97.6102 39.2702 97.79 39.186 98.004C39.1018 98.2112 39.0597 98.452 39.0597 98.7275C39.0597 99.003 39.1018 99.248 39.186 99.4626C39.2702 99.6771 39.3851 99.8569 39.5305 100.002C39.6759 100.14 39.8406 100.247 40.0243 100.324C40.208 100.401 40.4032 100.438 40.6099 100.438C40.8166 100.438 41.0118 100.401 41.1956 100.324C41.3793 100.247 41.5401 100.136 41.6778 99.991C41.8157 99.8374 41.9266 99.6576 42.0109 99.451C42.0951 99.237 42.1372 98.992 42.1372 98.7159ZM47.3982 100.37C47.5972 100.37 47.7847 100.335 47.9608 100.267C48.1445 100.19 48.3053 100.079 48.4431 99.9331C48.5809 99.7881 48.6919 99.6156 48.7761 99.4169C48.8603 99.2102 48.9025 98.9725 48.9025 98.7049C48.9025 98.4447 48.8603 98.2112 48.7761 98.004C48.6919 97.7973 48.5809 97.6255 48.4431 97.4877C48.3053 97.3499 48.1445 97.2463 47.9608 97.1775C47.7847 97.1007 47.5972 97.0629 47.3982 97.0629C47.1991 97.0629 47.0077 97.1007 46.824 97.1775C46.6479 97.2463 46.4909 97.3499 46.3532 97.4877C46.2154 97.6255 46.1044 97.7973 46.0202 98.004C45.9359 98.2112 45.8939 98.4447 45.8939 98.7049C45.8939 98.9725 45.9359 99.2102 46.0202 99.4169C46.1044 99.6156 46.2154 99.7881 46.3532 99.9331C46.4909 100.079 46.6479 100.19 46.824 100.267C47.0077 100.335 47.1991 100.37 47.3982 100.37ZM47.3982 101.805C46.9694 101.805 46.5637 101.736 46.1809 101.598C45.8058 101.453 45.4728 101.246 45.1819 100.978C44.8986 100.71 44.6728 100.385 44.5044 100.002C44.3436 99.6198 44.2632 99.1871 44.2632 98.7049C44.2632 98.2301 44.3436 97.8053 44.5044 97.4298C44.6728 97.047 44.8986 96.7221 45.1819 96.454C45.4728 96.1858 45.8058 95.9834 46.1809 95.8456C46.5637 95.7 46.9694 95.6274 47.3982 95.6274C47.8268 95.6274 48.2288 95.7 48.6039 95.8456C48.9865 95.9834 49.3199 96.1858 49.6027 96.454C49.894 96.7221 50.1232 97.047 50.2921 97.4298C50.4603 97.8053 50.5444 98.2301 50.5444 98.7049C50.5444 99.1871 50.4603 99.6198 50.2921 100.002C50.1311 100.385 49.9056 100.71 49.6143 100.978C49.3314 101.246 48.998 101.453 48.6154 101.598C48.2326 101.736 47.8268 101.805 47.3982 101.805ZM51.3807 95.742H52.977V100.347H54.9062V95.742H56.5025V100.347H58.4201V95.742H60.0164V101.69H51.3807V95.742ZM64.0758 101.805C63.5705 101.805 63.1189 101.732 62.7209 101.587C62.3228 101.434 61.9858 101.223 61.7103 100.955C61.4348 100.688 61.2202 100.366 61.0672 99.991C60.9215 99.6082 60.849 99.1907 60.849 98.7391C60.849 98.2569 60.9295 97.8242 61.0898 97.4414C61.2586 97.0586 61.4805 96.7331 61.756 96.4655C62.0394 96.1973 62.3649 95.9907 62.7324 95.8456C63.1073 95.7 63.5017 95.6274 63.9149 95.6274C64.3361 95.6274 64.7225 95.7073 65.0748 95.8682C65.4345 96.0212 65.7331 96.2473 65.9702 96.546C66.2153 96.8447 66.3914 97.2159 66.4987 97.6596C66.6133 98.096 66.6401 98.5976 66.5791 99.1639H62.5252C62.6252 99.5546 62.8281 99.8758 63.1341 100.129C63.448 100.374 63.8802 100.496 64.4318 100.496C64.7682 100.496 65.109 100.45 65.454 100.359C65.7983 100.259 66.0891 100.121 66.3262 99.9447V101.208C66.0812 101.384 65.7599 101.529 65.3619 101.645C64.9639 101.751 64.5348 101.805 64.0758 101.805ZM63.8576 96.8556C63.5132 96.8556 63.2219 96.9672 62.9848 97.189C62.7477 97.403 62.5868 97.6943 62.5026 98.0619H65.0517C65.0285 97.7169 64.9139 97.4298 64.7073 97.2006C64.5007 96.9708 64.2172 96.8556 63.8576 96.8556ZM70.3332 101.805C69.8279 101.805 69.3763 101.732 68.9782 101.587C68.5802 101.434 68.2431 101.223 67.9676 100.955C67.6921 100.688 67.4776 100.366 67.3246 99.991C67.1789 99.6082 67.1064 99.1907 67.1064 98.7391C67.1064 98.2569 67.1868 97.8242 67.3478 97.4414C67.516 97.0586 67.7378 96.7331 68.0133 96.4655C68.2968 96.1973 68.6223 95.9907 68.9898 95.8456C69.3647 95.7 69.759 95.6274 70.1723 95.6274C70.5935 95.6274 70.9799 95.7073 71.3322 95.8682C71.6918 96.0212 71.9905 96.2473 72.2276 96.546C72.4726 96.8447 72.6488 97.2159 72.7561 97.6596C72.8713 98.096 72.8975 98.5976 72.8365 99.1639H68.7832C68.8825 99.5546 69.0855 99.8758 69.3915 100.129C69.7054 100.374 70.1381 100.496 70.6892 100.496C71.0262 100.496 71.367 100.45 71.7113 100.359C72.0557 100.259 72.3465 100.121 72.5842 99.9447V101.208C72.3391 101.384 72.0173 101.529 71.6193 101.645C71.2213 101.751 70.7928 101.805 70.3332 101.805ZM70.115 96.8556C69.7706 96.8556 69.4799 96.9672 69.2422 97.189C69.005 97.403 68.8441 97.6943 68.76 98.0619H71.309C71.2865 97.7169 71.1713 97.4298 70.9647 97.2006C70.758 96.9708 70.4746 96.8556 70.115 96.8556ZM34.4547 105.494L36.0624 108.894L37.739 105.494H39.6796L39.6911 111.443H38.0949V107.55L36.4643 110.983H35.3849L33.8461 107.516V111.443H32.4682V105.494H34.4547ZM43.7613 111.557C43.256 111.557 42.8044 111.485 42.4063 111.339C42.0082 111.186 41.6714 110.976 41.3958 110.708C41.1202 110.44 40.9058 110.118 40.7527 109.743C40.6072 109.361 40.5345 108.943 40.5345 108.491C40.5345 108.009 40.6149 107.577 40.7757 107.194C40.9441 106.811 41.1661 106.486 41.4417 106.218C41.725 105.95 42.0503 105.743 42.4177 105.598C42.7929 105.452 43.1871 105.38 43.6005 105.38C44.0216 105.38 44.4082 105.46 44.7603 105.621C45.1202 105.774 45.4187 106 45.656 106.298C45.901 106.597 46.0771 106.968 46.1843 107.412C46.2991 107.848 46.3259 108.35 46.2646 108.916H42.2111C42.3106 109.307 42.5134 109.628 42.8197 109.881C43.1336 110.126 43.5661 110.249 44.1173 110.249C44.4542 110.249 44.7948 110.202 45.1393 110.111C45.4838 110.011 45.7747 109.873 46.012 109.697V110.961C45.7671 111.137 45.4455 111.282 45.0474 111.397C44.6493 111.504 44.2207 111.557 43.7613 111.557ZM43.5431 106.608C43.1986 106.608 42.9077 106.72 42.6704 106.941C42.4331 107.155 42.2723 107.447 42.1881 107.814H44.7374C44.7144 107.469 44.5996 107.182 44.3929 106.953C44.1862 106.723 43.9029 106.608 43.5431 106.608ZM49.9727 111.557C49.4985 111.557 49.0657 111.485 48.6752 111.339C48.2848 111.194 47.948 110.991 47.6647 110.731C47.3891 110.463 47.1748 110.141 47.0217 109.766C46.8685 109.383 46.792 108.955 46.792 108.48C46.792 108.013 46.8685 107.588 47.0217 107.205C47.1825 106.823 47.4044 106.497 47.6877 106.229C47.9786 105.961 48.3231 105.755 48.7212 105.609C49.1193 105.456 49.5631 105.38 50.0531 105.38C50.3975 105.38 50.7078 105.414 50.9833 105.483C51.2667 105.552 51.5081 105.64 51.7068 105.747V107.194C51.5081 107.041 51.2783 106.926 51.018 106.849C50.7577 106.765 50.4932 106.723 50.2256 106.723C49.6898 106.723 49.2534 106.88 48.9164 107.194C48.5872 107.508 48.4226 107.921 48.4226 108.434C48.4226 108.702 48.4647 108.947 48.5489 109.169C48.6408 109.383 48.7671 109.567 48.9279 109.72C49.0889 109.873 49.276 109.996 49.4905 110.088C49.7124 110.172 49.9538 110.214 50.214 110.214C50.4743 110.214 50.7346 110.176 50.9948 110.099C51.2551 110.023 51.4965 109.904 51.7183 109.743V111.11C51.5349 111.248 51.2898 111.359 50.9833 111.443C50.6773 111.52 50.3402 111.557 49.9727 111.557ZM57.5411 105.494V106.838H55.7382V111.443H54.1418V106.838H52.3736V105.494H57.5411ZM60.8722 110.122C61.0709 110.122 61.2586 110.088 61.4348 110.019C61.6182 109.942 61.7791 109.831 61.9169 109.685C62.0546 109.54 62.1656 109.368 62.2497 109.169C62.3338 108.963 62.3765 108.725 62.3765 108.457C62.3765 108.197 62.3338 107.964 62.2497 107.756C62.1656 107.55 62.0546 107.378 61.9169 107.24C61.7791 107.102 61.6182 106.999 61.4348 106.93C61.2586 106.853 61.0709 106.815 60.8722 106.815C60.6729 106.815 60.4815 106.853 60.298 106.93C60.1218 106.999 59.9646 107.102 59.8268 107.24C59.6891 107.378 59.5782 107.55 59.494 107.756C59.4099 107.964 59.3679 108.197 59.3679 108.457C59.3679 108.725 59.4099 108.963 59.494 109.169C59.5782 109.368 59.6891 109.54 59.8268 109.685C59.9646 109.831 60.1218 109.942 60.298 110.019C60.4815 110.088 60.6729 110.122 60.8722 110.122ZM60.8722 111.557C60.4431 111.557 60.0377 111.488 59.655 111.351C59.2795 111.206 58.9467 110.998 58.6553 110.731C58.3725 110.463 58.1464 110.137 57.9782 109.754C57.8172 109.372 57.7368 108.939 57.7368 108.457C57.7368 107.982 57.8172 107.558 57.9782 107.182C58.1464 106.799 58.3725 106.475 58.6553 106.206C58.9467 105.938 59.2795 105.736 59.655 105.598C60.0377 105.452 60.4431 105.38 60.8722 105.38C61.3007 105.38 61.7023 105.452 62.0778 105.598C62.4606 105.736 62.7934 105.938 63.0768 106.206C63.3676 106.475 63.5974 106.799 63.7656 107.182C63.9338 107.558 64.0185 107.982 64.0185 108.457C64.0185 108.939 63.9338 109.372 63.7656 109.754C63.6047 110.137 63.3791 110.463 63.0884 110.731C62.805 110.998 62.4722 111.206 62.0894 111.351C61.7066 111.488 61.3007 111.557 60.8722 111.557Z" fill="black"/>
</g>
<defs>
<filter id="filter0_d_427_56837" x="0.15004" y="0.15004" width="95.6999" height="150.985" filterUnits="userSpaceOnUse" color-interpolation-filters="sRGB">
<feFlood flood-opacity="0" result="BackgroundImageFix"/>
<feColorMatrix in="SourceAlpha" type="matrix" values="0 0 0 0 0 0 0 0 0 0 0 0 0 0 0 0 0 0 127 0" result="hardAlpha"/>
<feOffset/>
<feGaussianBlur stdDeviation="7.92498"/>
<feColorMatrix type="matrix" values="0 0 0 0 0 0 0 0 0 0 0 0 0 0 0 0 0 0 0.12 0"/>
<feBlend mode="normal" in2="BackgroundImageFix" result="effect1_dropShadow_427_56837"/>
<feBlend mode="normal" in="SourceGraphic" in2="effect1_dropShadow_427_56837" result="shape"/>
</filter>
</defs>
</svg>
