<svg width="36" height="36" viewBox="0 0 36 36" fill="none" xmlns="http://www.w3.org/2000/svg">
<path d="M9 6V3M27 6V3M15 6V3M21 6V3M9 33V30M27 33V30M15 33V30M21 33V30M6 27H3M6 9H3M6 21H3M6 15H3M33 27H30M33 9L30 9M33 21H30M33 15H30M13.2 30H22.8C25.3202 30 26.5804 30 27.543 29.5095C28.3897 29.0781 29.0781 28.3897 29.5095 27.543C30 26.5804 30 25.3202 30 22.8V13.2C30 10.6798 30 9.41965 29.5095 8.45704C29.0781 7.61031 28.3897 6.9219 27.543 6.49047C26.5804 6 25.3202 6 22.8 6H13.2C10.6798 6 9.41965 6 8.45704 6.49047C7.61031 6.9219 6.9219 7.61031 6.49047 8.45704C6 9.41965 6 10.6798 6 13.2V22.8C6 25.3202 6 26.5804 6.49047 27.543C6.9219 28.3897 7.61031 29.0781 8.45704 29.5095C9.41965 30 10.6798 30 13.2 30Z" stroke="#00CFDC" stroke-width="3" stroke-linecap="round" stroke-linejoin="round"/>
<rect x="13" y="13" width="10" height="10" stroke="#00CFDC" stroke-width="3" stroke-linecap="round" stroke-linejoin="round"/>
</svg>
