<svg width="36" height="36" viewBox="0 0 36 36" fill="none" xmlns="http://www.w3.org/2000/svg">
<path d="M33 15V21M15.75 13.5L12.6751 18H18.8249L15.75 22.5M10.2 27H21.3C23.8202 27 25.0804 27 26.043 26.5095C26.8897 26.0781 27.5781 25.3897 28.0095 24.543C28.5 23.5804 28.5 22.3202 28.5 19.8V16.2C28.5 13.6798 28.5 12.4196 28.0095 11.457C27.5781 10.6103 26.8897 9.9219 26.043 9.49047C25.0804 9 23.8202 9 21.3 9H10.2C7.67976 9 6.41965 9 5.45704 9.49047C4.61031 9.9219 3.9219 10.6103 3.49047 11.457C3 12.4196 3 13.6798 3 16.2V19.8C3 22.3202 3 23.5804 3.49047 24.543C3.9219 25.3897 4.61031 26.0781 5.45704 26.5095C6.41965 27 7.67976 27 10.2 27Z" stroke="#00CFDC" stroke-width="3" stroke-linecap="round" stroke-linejoin="round"/>
</svg>
