<svg width="36" height="36" viewBox="0 0 36 36" fill="none" xmlns="http://www.w3.org/2000/svg">
<path d="M16.5 9H19.5M16.2 31.5H19.8C22.3202 31.5 23.5804 31.5 24.543 31.0095C25.3897 30.5781 26.0781 29.8897 26.5095 29.043C27 28.0804 27 26.8202 27 24.3V11.7C27 9.17976 27 7.91965 26.5095 6.95704C26.0781 6.11031 25.3897 5.4219 24.543 4.99047C23.5804 4.5 22.3202 4.5 19.8 4.5H16.2C13.6798 4.5 12.4196 4.5 11.457 4.99047C10.6103 5.4219 9.9219 6.11031 9.49047 6.95704C9 7.91965 9 9.17976 9 11.7V24.3C9 26.8202 9 28.0804 9.49047 29.043C9.9219 29.8897 10.6103 30.5781 11.457 31.0095C12.4196 31.5 13.6798 31.5 16.2 31.5Z" stroke="#00CFDC" stroke-width="3" stroke-linecap="round" stroke-linejoin="round"/>
<path d="M9 24L14 19L17 22L21 18" stroke="#00CFDC" stroke-width="3" stroke-linecap="round" stroke-linejoin="round"/>
</svg>
