<svg width="36" height="36" viewBox="0 0 36 36" fill="none" xmlns="http://www.w3.org/2000/svg">
<path d="M24 9V12M18 9V12M18 3H22.8C25.3202 3 26.5804 3 27.543 3.49047C28.3897 3.9219 29.0781 4.61031 29.5095 5.45704C30 6.41965 30 7.67976 30 10.2V25.8C30 28.3202 30 29.5804 29.5095 30.543C29.0781 31.3897 28.3897 32.0781 27.543 32.5095C26.5804 33 25.3202 33 22.8 33H13.2C10.6798 33 9.41965 33 8.45704 32.5095C7.61031 32.0781 6.9219 31.3897 6.49047 30.543C6 29.5804 6 28.3202 6 25.8V16.7756C6 15.8395 6 15.3715 6.09188 14.9238C6.17339 14.5266 6.30821 14.1423 6.49268 13.7812C6.7006 13.3743 6.99298 13.0088 7.57774 12.2778L13.1259 5.34261C13.6375 4.70314 13.8933 4.38341 14.1867 4.12469C14.8085 3.57641 15.5697 3.21055 16.3863 3.0675C16.7716 3 17.1811 3 18 3ZM13.2 27H22.8C23.22 27 23.4301 27 23.5905 26.9183C23.7316 26.8464 23.8463 26.7316 23.9183 26.5905C24 26.4301 24 26.22 24 25.8V20.7C24 20.28 24 20.0699 23.9183 19.9095C23.8463 19.7684 23.7316 19.6537 23.5905 19.5817C23.4301 19.5 23.22 19.5 22.8 19.5H13.2C12.78 19.5 12.5699 19.5 12.4095 19.5817C12.2684 19.6537 12.1536 19.7684 12.0817 19.9095C12 20.0699 12 20.28 12 20.7V25.8C12 26.22 12 26.4301 12.0817 26.5905C12.1536 26.7316 12.2684 26.8464 12.4095 26.9183C12.5699 27 12.78 27 13.2 27Z" stroke="#00CFDC" stroke-width="3" stroke-linecap="round" stroke-linejoin="round"/>
</svg>
