<svg width="36" height="36" viewBox="0 0 36 36" fill="none" xmlns="http://www.w3.org/2000/svg">
<path d="M30 16.7756C30 15.8395 30 15.3715 29.9081 14.9238C29.8266 14.5266 29.6918 14.1423 29.5073 13.7812C29.2994 13.3743 29.007 13.0088 28.4223 12.2778L22.8741 5.34261C22.3625 4.70314 22.1067 4.38341 21.8133 4.12469C21.1915 3.57641 20.4303 3.21055 19.6137 3.0675C19.2284 3 18.8189 3 18 3H13.2C10.6798 3 9.41965 3 8.45704 3.49047C7.61031 3.9219 6.9219 4.61031 6.49047 5.45704C6 6.41965 6 7.67976 6 10.2V25.8C6 28.3202 6 29.5804 6.49047 30.543C6.9219 31.3897 7.61031 32.0781 8.45704 32.5095C9.41965 33 10.6798 33 13.2 33H22.8C25.3202 33 26.5804 33 27.543 32.5095C28.3897 32.0781 29.0781 31.3897 29.5095 30.543C30 29.5804 30 28.3202 30 25.8V16.7756Z" stroke="#00CFDC" stroke-width="3" stroke-linecap="round" stroke-linejoin="round"/>
<path d="M12 20.7C12 20.28 12 20.0699 12.0817 19.9095C12.1537 19.7684 12.2684 19.6537 12.4095 19.5817C12.5699 19.5 12.78 19.5 13.2 19.5H22.8C23.22 19.5 23.4301 19.5 23.5905 19.5817C23.7316 19.6537 23.8463 19.7684 23.9183 19.9095C24 20.0699 24 20.28 24 20.7V25.8C24 26.22 24 26.4301 23.9183 26.5905C23.8463 26.7316 23.7316 26.8463 23.5905 26.9183C23.4301 27 23.22 27 22.8 27H13.2C12.78 27 12.5699 27 12.4095 26.9183C12.2684 26.8463 12.1537 26.7316 12.0817 26.5905C12 26.4301 12 26.22 12 25.8V20.7Z" stroke="#00CFDC" stroke-width="3" stroke-linecap="round" stroke-linejoin="round"/>
</svg>
